<svg xmlns="http://www.w3.org/2000/svg"  viewBox="0 0 48 48" width="48px" height="48px" fill-rule="evenodd" clip-rule="evenodd" baseProfile="basic"><linearGradient id="gKpFh9mZn592lxrI5cs-Ya" x1="12.373" x2="28.858" y1="-36.275" y2="52.028" gradientUnits="userSpaceOnUse"><stop offset=".323" stop-color="#23d9d6"/><stop offset=".427" stop-color="#23d4d7"/><stop offset=".542" stop-color="#21c7dc"/><stop offset=".664" stop-color="#1fb0e2"/><stop offset=".789" stop-color="#1c91ec"/><stop offset=".917" stop-color="#1969f8"/><stop offset=".944" stop-color="#1860fb"/></linearGradient><path fill="url(#gKpFh9mZn592lxrI5cs-Ya)" d="M9.923,41.988c-3.734,0-6.889-3.134-6.889-6.845l0.009-18.269 c0-3.729,3.147-6.879,6.874-6.879l28.152,0.026c3.733,0,6.89,3.116,6.89,6.804l0.007,18.336c0,3.701-3.146,6.826-6.871,6.826 L9.923,41.988z M9.915,13.995c-1.529,0-2.872,1.346-2.872,2.88L7.034,35.144c0,1.515,1.35,2.844,2.889,2.844l28.172,0 c1.529,0,2.871-1.32,2.871-2.825l-0.007-18.335c0,0,0,0,0-0.001c0-1.494-1.352-2.805-2.892-2.805L9.915,13.995z M44.959,16.826 h0.01H44.959z"/><linearGradient id="gKpFh9mZn592lxrI5cs-Yb" x1="19.889" x2="36.374" y1="-37.678" y2="50.625" gradientUnits="userSpaceOnUse"><stop offset=".323" stop-color="#23d9d6"/><stop offset=".427" stop-color="#23d4d7"/><stop offset=".542" stop-color="#21c7dc"/><stop offset=".664" stop-color="#1fb0e2"/><stop offset=".789" stop-color="#1c91ec"/><stop offset=".917" stop-color="#1969f8"/><stop offset=".944" stop-color="#1860fb"/></linearGradient><path fill="url(#gKpFh9mZn592lxrI5cs-Yb)" d="M25.533,12.973 c-0.384,0-0.768-0.146-1.061-0.439c-0.586-0.585-0.586-1.536,0-2.121l5.952-5.952c0.586-0.586,1.535-0.586,2.121,0 c0.586,0.585,0.586,1.536,0,2.121l-5.952,5.952C26.301,12.827,25.917,12.973,25.533,12.973z"/><linearGradient id="gKpFh9mZn592lxrI5cs-Yc" x1="10.254" x2="26.739" y1="-35.879" y2="52.424" gradientUnits="userSpaceOnUse"><stop offset=".323" stop-color="#23d9d6"/><stop offset=".427" stop-color="#23d4d7"/><stop offset=".542" stop-color="#21c7dc"/><stop offset=".664" stop-color="#1fb0e2"/><stop offset=".789" stop-color="#1c91ec"/><stop offset=".917" stop-color="#1969f8"/><stop offset=".944" stop-color="#1860fb"/></linearGradient><path fill="url(#gKpFh9mZn592lxrI5cs-Yc)" d="M21.531,12.973 c-0.384,0-0.768-0.146-1.061-0.439l-5.993-5.993c-0.586-0.585-0.586-1.535,0-2.121s1.535-0.586,2.121,0l5.993,5.993 c0.586,0.585,0.586,1.535,0,2.121C22.299,12.827,21.915,12.973,21.531,12.973z"/><linearGradient id="gKpFh9mZn592lxrI5cs-Yd" x1="4.829" x2="21.314" y1="-34.866" y2="53.437" gradientUnits="userSpaceOnUse"><stop offset=".323" stop-color="#23d9d6"/><stop offset=".427" stop-color="#23d4d7"/><stop offset=".542" stop-color="#21c7dc"/><stop offset=".664" stop-color="#1fb0e2"/><stop offset=".789" stop-color="#1c91ec"/><stop offset=".917" stop-color="#1969f8"/><stop offset=".944" stop-color="#1860fb"/></linearGradient><path fill="url(#gKpFh9mZn592lxrI5cs-Yd)" d="M12.533,24.974 c-0.628,0-1.214-0.397-1.423-1.026c-0.262-0.786,0.162-1.635,0.948-1.897l6-2c0.786-0.263,1.636,0.162,1.897,0.949 c0.262,0.786-0.162,1.635-0.948,1.897l-6,2C12.851,24.949,12.69,24.974,12.533,24.974z"/><g><linearGradient id="gKpFh9mZn592lxrI5cs-Ye" x1="20.285" x2="36.77" y1="-37.752" y2="50.551" gradientUnits="userSpaceOnUse"><stop offset=".323" stop-color="#23d9d6"/><stop offset=".427" stop-color="#23d4d7"/><stop offset=".542" stop-color="#21c7dc"/><stop offset=".664" stop-color="#1fb0e2"/><stop offset=".789" stop-color="#1c91ec"/><stop offset=".917" stop-color="#1969f8"/><stop offset=".944" stop-color="#1860fb"/></linearGradient><path fill="url(#gKpFh9mZn592lxrI5cs-Ye)" d="M34.528,24.974 c-0.157,0-0.317-0.025-0.475-0.078l-6-2c-0.786-0.262-1.21-1.111-0.948-1.897c0.262-0.787,1.11-1.213,1.897-0.949l6,2 c0.786,0.262,1.21,1.111,0.948,1.897C35.742,24.576,35.156,24.974,34.528,24.974z"/></g><g><linearGradient id="gKpFh9mZn592lxrI5cs-Yf" x1="11.291" x2="27.776" y1="-36.073" y2="52.23" gradientUnits="userSpaceOnUse"><stop offset=".323" stop-color="#23d9d6"/><stop offset=".427" stop-color="#23d4d7"/><stop offset=".542" stop-color="#21c7dc"/><stop offset=".664" stop-color="#1fb0e2"/><stop offset=".789" stop-color="#1c91ec"/><stop offset=".917" stop-color="#1969f8"/><stop offset=".944" stop-color="#1860fb"/></linearGradient><path fill="url(#gKpFh9mZn592lxrI5cs-Yf)" d="M26.527,32.973 c-1.141,0-2.192-0.361-3-0.973c-0.808,0.612-1.859,0.973-2.998,0.973c-2.167,0-4.004-1.29-4.465-3.136 c-0.201-0.804,0.288-1.618,1.092-1.819c0.806-0.202,1.618,0.288,1.818,1.091c0.106,0.425,0.717,0.864,1.555,0.864 c0.826,0,1.438-0.435,1.551-0.855c0.176-0.655,0.771-1.11,1.448-1.11c0.001,0,0.001,0,0.002,0c0.679,0.001,1.272,0.458,1.447,1.113 c0.111,0.419,0.722,0.852,1.55,0.852c0.837,0,1.446-0.439,1.553-0.864c0.2-0.804,1.012-1.293,1.818-1.091 c0.804,0.201,1.293,1.015,1.092,1.819C30.529,31.684,28.693,32.973,26.527,32.973z"/></g><g><linearGradient id="gKpFh9mZn592lxrI5cs-Yg" x1="-.453" x2="16.032" y1="-33.88" y2="54.423" gradientUnits="userSpaceOnUse"><stop offset=".323" stop-color="#23d9d6"/><stop offset=".427" stop-color="#23d4d7"/><stop offset=".542" stop-color="#21c7dc"/><stop offset=".664" stop-color="#1fb0e2"/><stop offset=".789" stop-color="#1c91ec"/><stop offset=".917" stop-color="#1969f8"/><stop offset=".944" stop-color="#1860fb"/></linearGradient><path fill="url(#gKpFh9mZn592lxrI5cs-Yg)" fill-rule="evenodd" d="M11.532,41.94v-2h4.001v2c0,1.104-0.897,2.001-2,2.001C12.429,43.942,11.532,43.044,11.532,41.94z" clip-rule="evenodd"/></g><g><linearGradient id="gKpFh9mZn592lxrI5cs-Yh" x1="18.848" x2="35.333" y1="-37.483" y2="50.82" gradientUnits="userSpaceOnUse"><stop offset=".323" stop-color="#23d9d6"/><stop offset=".427" stop-color="#23d4d7"/><stop offset=".542" stop-color="#21c7dc"/><stop offset=".664" stop-color="#1fb0e2"/><stop offset=".789" stop-color="#1c91ec"/><stop offset=".917" stop-color="#1969f8"/><stop offset=".944" stop-color="#1860fb"/></linearGradient><path fill="url(#gKpFh9mZn592lxrI5cs-Yh)" fill-rule="evenodd" d="M35.521,42.02v-2H31.52v2c0,1.104,0.897,2.001,2,2.001C34.624,44.022,35.521,43.124,35.521,42.02z" clip-rule="evenodd"/></g></svg>