<?xml version="1.0" encoding="UTF-8" standalone="no"?>
<!-- Created with Inkscape (http://www.inkscape.org/) -->

<svg
   version="1.1"
   id="svg1"
   width="460"
   height="460"
   viewBox="0 0 460 460"
   xmlns="http://www.w3.org/2000/svg"
   xmlns:svg="http://www.w3.org/2000/svg">
  <defs
     id="defs1" />
  <g
     id="g1">
    <g
       id="g2"
       transform="translate(12.417176,-2.2576685)">
      <path
         style="fill:#daf0f8"
         d="m 195.89345,439.85454 c -20.83979,-1.25336 -47.50667,-6.19374 -56.56635,-10.47966 -6.38662,-3.02135 -8.11556,-5.52259 -6.02396,-8.71477 6.03486,-9.21036 43.91829,-14.85542 100.19686,-14.93047 31.13588,-0.0415 39.77523,0.5144 65.0798,4.18776 14.03485,2.03738 28.38578,7.28124 30.44216,11.12364 3.7061,6.92491 -6.62194,12.16566 -31.52196,15.99515 -24.48374,3.76547 -66.48663,4.93054 -101.60655,2.81835 z m -22.83988,-48.5823 c -2.5609,-0.90415 -6.45842,-3.58185 -9.1911,-6.31453 -6.02106,-6.02106 -7.20188,-10.13395 -9.31869,-32.45771 -0.8866,-9.35 -2.51542,-25.325 -3.61961,-35.5 -1.10419,-10.175 -3.33288,-31.775 -4.95266,-48 -1.61977,-16.225 -3.17659,-31.075 -3.4596,-33 -0.28301,-1.925 -2.33264,-21.49676 -4.55473,-43.4928 -4.43121,-43.86362 -4.40951,-45.20413 0.85769,-53.0072 1.71612,-2.54234 4.66034,-4.99447 8.07929,-6.72893 3.09168,-1.56844 4.78952,-2.92953 3.99253,-3.20063 -0.76268,-0.25943 -3.41169,-0.97953 -5.88669,-1.60021 -8.20705,-2.05817 -33.45442,-11.25464 -36.27264,-13.21248 -12.425934,-8.6324 -6.60124,-38.544024 11.67434,-59.951376 7.82473,-9.165604 18.64319,-19.12526 23.04149,-21.21239 4.92393,-2.33656 12.30265,-2.044927 16.72774,0.661139 9.79976,5.992823 32.92597,29.888009 43.5469,44.994877 5.18741,7.378408 5.63303,7.75 9.29399,7.75 4.42746,0 5.26835,-0.705658 11.70548,-9.822981 C 227.31011,73.504659 232.58702,66.675 236.44376,62 246.08959,50.307676 278.71572,17.663647 283,15.418214 c 4.97879,-2.60943 14.29559,-2.459051 19.59106,0.316211 5.2645,2.759034 22.42846,19.838415 30.64219,30.491201 8.24478,10.693056 11.5687,16.071719 17.39408,28.14658 6.31434,13.088393 6.87943,19.012414 2.46846,25.877884 -3.84707,5.9878 -8.21389,8.08792 -29.59579,14.23337 -24.75628,7.11529 -35.5,10.66588 -35.5,11.73208 0,0.62709 19.41511,0.87095 54.25,0.68141 48.61602,-0.26453 54.6394,-0.12404 57.99961,1.35274 6.09869,2.68033 10.24218,6.40662 13.3391,11.99598 L 416.5,145.5 l 0.6348,38 c 0.34914,20.9 0.68664,65.47415 0.75,99.05366 l 0.1152,61.05365 -2.59023,5.19792 c -2.93702,5.89383 -8.01067,10.5237 -13.89735,12.6818 -2.20683,0.80904 -16.83742,3.27064 -32.51242,5.47022 -15.675,2.19958 -54.375,7.62356 -86,12.05329 -31.625,4.42973 -66.69219,9.38952 -77.92708,11.02176 -23.01157,3.34318 -25.76067,3.44964 -32.01935,1.23994 z M 233.5,352.51807 c 22,-3.04773 42.7,-5.98723 46,-6.53223 3.3,-0.545 12.75,-1.91437 21,-3.04305 33.09568,-4.52781 83.79102,-11.90048 84.1249,-12.23436 0.19524,-0.19523 0.022,-38.572 -0.38496,-85.2817 L 383.5,160.5 l -15,-0.32524 c -8.25,-0.17888 -56.57596,-0.0111 -107.39103,0.37277 l -92.39103,0.69801 0.62751,8.84041 c 0.34513,4.86223 1.3227,15.26949 2.17237,23.12723 2.57244,23.79003 13.23413,127.0965 15.04584,145.78682 0.93298,9.625 2.10438,18.01604 2.6031,18.64677 0.49873,0.63072 1.67773,0.98158 2.62001,0.77968 0.94228,-0.20189 19.71323,-2.86066 41.71323,-5.90838 z m 52.41393,-46.60819 c -5.72481,-2.79957 -13.78492,-6.2224 -17.91134,-7.60629 -10.32393,-3.46238 -12.71546,-4.84766 -14.57416,-8.442 -3.4948,-6.7582 1.73895,-14.86159 9.59868,-14.86159 3.86877,0 17.18027,4.4104 28.42324,9.41727 l 5.95036,2.64988 4.04964,-3.08652 c 8.48083,-6.46385 19.17161,-13.0051 22.17817,-13.56991 6.59996,-1.23987 13.22757,5.40569 11.92846,11.96076 -0.86864,4.38297 -2.10199,5.70974 -10.05698,10.81873 -3.85,2.47261 -9.94974,7.0191 -13.55497,10.10332 C 305.48042,308.8239 301.56989,311 298.09625,311 c -0.97546,0 -6.4575,-2.29055 -12.18232,-5.09012 z M 240.45042,251.5934 c -1.67726,-0.73057 -4.26476,-2.77248 -5.75,-4.53758 L 232,243.84655 v -17.54092 -17.54092 l 3.78952,-3.78952 c 5.2344,-5.2344 11.21053,-6.17899 17.94869,-2.83697 7.41195,3.67622 8.25837,6.23425 8.26024,24.9639 0.001,14.55735 -0.15045,15.82965 -2.26838,19 -4.12092,6.16864 -12.34608,8.51136 -19.27965,5.49128 z m 78.46203,-5.87342 c -5.3691,-3.61823 -5.88138,-5.57431 -5.89771,-22.51964 -0.0172,-17.90653 0.62096,-19.87739 7.51792,-23.21615 7.33443,-3.55054 15.71488,-1.27376 19.04987,5.17541 2.17788,4.21155 2.49698,31.19581 0.41747,35.30307 -3.67467,7.25789 -14.21829,9.88651 -21.08755,5.25731 z m -84.9808,-118.33687 c 0.81887,-0.78363 -6.44116,-7.56327 -10.14181,-9.47074 -5.85038,-3.01553 -14.29524,-2.6119 -19.91466,0.95184 -4.4832,2.84315 -8.87518,7.49398 -8.87518,9.39823 0,0.94899 37.916,0.0926 38.93165,-0.87933 z M 174.51682,104.3211 C 176.98257,101.7477 179,99.229671 179,98.72547 c 0,-2.421553 -22.55144,-28.879858 -26.34663,-30.910982 -1.83033,-0.979561 -2.6,-0.525991 -6.42507,3.786319 C 141.90531,76.474463 135,89.229222 135,92.340536 c 0,0.99343 2.44241,2.877024 6.25,4.820017 10.36437,5.288887 25.13589,11.734287 27.01682,11.788507 0.97176,0.028 3.78426,-2.05457 6.25,-4.62796 z M 273,103.12341 C 291.20199,98.15717 320,86.382446 320,83.906382 320,79.616958 296.16475,49 292.82544,49 c -2.70378,0 -39.88016,40.133033 -44.22372,47.740852 -0.43408,0.760297 0.95815,2.788677 3.59492,5.237538 5.26171,4.88673 6.78262,4.97044 20.80336,1.14502 z M 109,382.0505 C 104.46828,380.64098 88.808186,373.76569 73.27041,366.36406 67.377796,363.55703 62.686164,358.4577 60.526229,352.51242 59.724482,350.30559 57.008327,333.65 54.49033,315.5 51.972333,297.35 49.249421,278 48.439415,272.5 37.629929,199.10277 37.13617,194.65052 39.044006,187.78105 c 1.609033,-5.79357 4.803712,-8.79598 22.740999,-21.37235 20.198858,-14.16203 24.725828,-16.62066 31.662016,-17.19586 6.818829,-0.56547 11.787259,1.10342 16.843899,5.65785 6.93282,6.24428 7.2523,7.68796 11.66498,52.7122 5.25986,53.66838 6.28807,63.32946 9.03754,84.91711 0.49035,3.85 1.12697,9.475 1.41471,12.5 0.28775,3.025 1.93591,17.20134 3.66258,31.50297 3.405,28.20289 3.31838,30.65606 -1.3257,37.54741 -3.27195,4.85525 -11.68127,8.97125 -18.10922,8.86367 -2.8247,-0.0473 -6.26081,-0.43587 -7.63581,-0.86355 z M 108.34038,350.25 c 0.25213,-0.4125 -0.17333,-6.375 -0.94547,-13.25 -1.44358,-12.85334 -2.11973,-19.00059 -4.83967,-44 -1.81628,-16.69375 -4.165653,-37.71517 -5.588041,-50 -3.95358,-34.14615 -4.982025,-43.41597 -5.563854,-50.14941 -0.363538,-4.20718 -1.003846,-8.20419 -1.422906,-8.88224 -0.542015,-0.877 -3.960198,0.89788 -11.842958,6.14941 -9.298036,6.1944 -11.085573,7.79807 -11.109256,9.96657 -0.02957,2.707 3.252513,27.22796 7.618038,56.91567 1.415339,9.625 2.905403,19.975 3.311252,23 4.399539,32.79197 8.565982,59.75201 9.401846,60.83704 1.152491,1.49604 17.473169,10.03337 19.331619,10.11235 0.65504,0.0278 1.39727,-0.28689 1.6494,-0.69939 z"
         id="path12" />
      <path
         style="fill:#e3a0d7"
         d="m 174.70268,390.55768 c -6.9991,-2.49664 -11.36093,-6.15983 -14.16918,-11.89968 -2.37312,-4.85048 -2.9771,-8.48096 -5.54006,-33.30099 C 153.41132,330.03565 151.20226,308.725 150.0844,298 c -1.11785,-10.725 -2.71531,-26.475 -3.54991,-35 -0.8346,-8.525 -1.97294,-19.325 -2.52965,-24 -1.19442,-10.03016 -3.49876,-32.34724 -5.57575,-54 -0.81774,-8.525 -1.88743,-19.1 -2.37708,-23.5 -1.38642,-12.45837 0.60765,-19.35996 7.28848,-25.2258 3.7404,-3.28412 8.94887,-4.83839 20.65951,-6.16507 l 7.5,-0.84966 -10.06166,-0.12973 c -11.8502,-0.1528 -20.22515,-2.12398 -38.93834,-9.16479 -14.41475,-5.42352 -17.59529,-7.8914 -19.5564,-15.17441 -2.20919,-8.204301 2.42328,-26.03916 10.15535,-39.097787 5.68873,-9.607654 24.58232,-28.779529 31.28261,-31.743388 6.48129,-2.866981 11.99054,-2.050052 18.37301,2.724406 10.98189,8.215084 34.93763,33.86431 42.10009,45.076229 3.34782,5.240583 3.36325,5.25 8.60287,5.25 h 5.24904 l 4.50854,-6.780224 c 8.80554,-13.242306 30.6022,-37.420332 48.465,-53.759975 9.55795,-8.742948 11.92415,-10.40528 16.30813,-11.45698 10.32175,-2.476148 18.92317,2.879812 36.18741,22.533274 11.55749,13.156958 16.4448,20.126078 22.71005,32.383715 7.08403,13.859525 8.79235,19.873679 7.17681,25.265896 -2.10934,7.040344 -7.20831,11.189724 -17.59698,14.319874 -16.8814,5.08644 -46.96268,14.50735 -52.46553,16.43126 l -5.5,1.9229 59,0.0799 59,0.0799 5.07086,2.36123 c 6.25126,2.91087 11.04742,8.52685 12.91216,15.11923 1.15031,4.0667 1.54352,22.74536 2.10653,100.06779 0.63955,87.83369 0.56319,95.45629 -1.00352,100.17321 -2.03225,6.11852 -8.11128,12.17432 -14.64468,14.58872 -2.44274,0.90271 -17.26635,3.43562 -32.94135,5.62869 -75.42431,10.55253 -131.98655,18.52078 -156.89287,22.1024 -30.39861,4.37143 -31.02823,4.41461 -36.40445,2.49687 z M 234.5,353.53518 c 21.45,-3.00048 41.925,-5.92174 45.5,-6.4917 3.575,-0.56996 13.475,-1.99038 22,-3.15649 50.40207,-6.89434 82.24805,-11.73504 83.15248,-12.63947 0.70916,-0.70916 0.76911,-27.85448 0.1908,-86.3908 L 384.5,159.5 l -32,-0.31807 c -57.43547,-0.57089 -184.33215,0.93191 -184.79015,2.18841 -0.41266,1.13208 -0.0244,5.63585 2.81296,32.62966 3.40856,32.42811 12.60919,121.88974 14.60391,142 1.17291,11.825 2.58654,22.0712 3.14141,22.76933 0.61438,0.77301 2.22549,1.06443 4.12036,0.7453 1.71133,-0.28822 20.66151,-2.97897 42.11151,-5.97945 z m 53.54183,-48.06792 c -5.12215,-2.493 -13.859,-6.11509 -19.41521,-8.04908 -10.67274,-3.71494 -14.05129,-5.98975 -15.09965,-10.16675 C 252.15466,281.7837 257.21472,276 263.37066,276 c 2.89472,0 17.37806,4.97577 26.51766,9.11017 3.51357,1.58941 6.82059,2.88983 7.34894,2.88983 0.52835,0 4.6286,-2.77096 9.11168,-6.15768 14.11681,-10.66448 20.76196,-12.62546 25.4413,-7.50771 5.60689,6.1322 3.64615,11.0665 -7.20247,18.12541 -4.44827,2.89438 -10.74408,7.61224 -13.99068,10.48413 -5.60038,4.954 -9.17048,7.05585 -11.98477,7.05585 -0.69161,0 -5.44833,-2.03973 -10.57049,-4.53274 z M 240.31632,250.05662 C 233.74219,247.07187 233,244.68222 233,226.5 c 0,-17.48556 0.75418,-20.27256 6.26693,-23.15891 4.53287,-2.37331 12.04809,-2.23371 15.48701,0.28769 5.56474,4.08003 6.34474,7.25444 6.03072,24.54358 -0.27498,15.13968 -0.36963,15.76436 -2.78466,18.37888 -2.81492,3.04745 -7.8013,5.45968 -11.21788,5.4268 -1.25517,-0.0121 -4.16478,-0.87672 -6.4658,-1.92142 z m 79.04299,-5.10246 c -4.93782,-3.16351 -5.54091,-5.89262 -5.18143,-23.44729 l 0.32212,-15.73068 3.33218,-2.77953 c 1.83271,-1.52874 4.56028,-3.02515 6.06128,-3.32535 4.16796,-0.83359 10.12958,0.89749 13.01402,3.7789 2.54112,2.53846 2.59882,2.90499 2.91021,18.48855 0.25481,12.75142 0.0161,16.48202 -1.20595,18.84515 -3.02834,5.85618 -13.18648,8.05652 -19.25243,4.17025 z M 235.90082,128.43251 c 1.03294,-1.03293 -7.71029,-8.8183 -12.40082,-11.04227 -9.75191,-4.62377 -17.58822,-2.50846 -27.4193,7.40146 l -5.486,5.53001 22.41845,-0.70999 c 12.33015,-0.39049 22.6296,-0.92114 22.88767,-1.17921 z M 174.71855,104.78416 C 177.62335,101.91545 180,99.188452 180,98.724169 180,95.892054 155.35713,68.213442 152.0536,67.33507 c -2.02818,-0.539273 -3.10361,0.103023 -6.29089,3.75723 -4.73446,5.428035 -12.25618,20.179352 -11.41167,22.380125 0.72888,1.899414 30.60775,16.337695 34.11751,16.486505 0.53271,0.0226 3.34521,-2.30606 6.25,-5.17477 z m 91.30356,0.79839 c 10.22407,-2.16757 25.23265,-7.136851 40.47789,-13.402073 11.09464,-4.559484 14.06246,-6.183419 14.30098,-7.825233 0.56042,-3.857635 -21.72958,-33.962659 -26.50224,-35.7941 -0.8693,-0.333583 -2.57534,0.0453 -3.7912,0.841961 -4.26088,2.791831 -36.67319,38.34149 -41.05484,45.028739 -2.1076,3.216609 -1.26168,5.345633 3.70238,9.318156 4.65054,3.72163 4.23541,3.6625 12.86703,1.83255 z M 109,381.6571 C 106.525,380.93961 97.127543,377.01075 88.116761,372.92629 70.077143,364.74919 64.232913,360.53862 61.523289,353.7666 60.110359,350.23534 50.572756,288.02074 44.465933,242.5 c -0.811636,-6.05 -1.90686,-13.475 -2.43383,-16.5 -0.526971,-3.025 -1.63276,-11.43811 -2.457309,-18.69581 -1.71556,-15.1004 -0.891136,-20.26584 4.141254,-25.9471 3.186491,-3.59735 35.432734,-25.61275 41.651584,-28.43669 5.038873,-2.28811 15.516698,-2.5487 19.507178,-0.48514 4.25912,2.20248 9.90808,9.02046 10.98482,13.25807 0.53199,2.09367 1.25578,7.40667 1.60843,11.80667 0.35265,4.4 1.25993,12.95 2.01617,19 0.75624,6.05 1.85498,15.275 2.44165,20.5 1.77842,15.83921 5.96826,51.99325 7.01125,60.5 0.53947,4.4 1.49893,13.4 2.13213,20 0.63321,6.6 2.45166,22.45601 4.04101,35.23557 3.30648,26.58655 3.49804,31.87277 1.342,37.0329 -4.16442,9.96687 -16.16062,15.16201 -27.45227,11.88863 z m 0,-33.44864 c 0,-1.53534 -0.67068,-7.94784 -1.49041,-14.25 C 103.86682,305.9523 92,191.24688 92,184.04179 c 0,-1.15751 -0.616955,-2.34131 -1.371011,-2.63067 -0.754056,-0.28935 -6.660515,3.16272 -13.125464,7.67129 l -11.754452,8.19739 0.585363,5.1101 c 0.32195,2.81056 2.194545,15.9101 4.161323,29.1101 1.966777,13.2 3.985123,26.925 4.485213,30.5 6.086318,43.50934 11.063015,77.53234 11.528572,78.81464 0.542886,1.4953 18.071836,10.06236 20.740456,10.13664 1.26037,0.0351 1.75,-0.73232 1.75,-2.74282 z"
         id="path11" />
      <path
         style="fill:#9fd6de"
         d="m 174.70268,390.55768 c -6.9991,-2.49664 -11.36093,-6.15983 -14.16918,-11.89968 -2.37312,-4.85048 -2.9771,-8.48096 -5.54006,-33.30099 C 153.41132,330.03565 151.20226,308.725 150.0844,298 c -1.11785,-10.725 -2.71531,-26.475 -3.54991,-35 -0.8346,-8.525 -1.97294,-19.325 -2.52965,-24 -1.19442,-10.03016 -3.49876,-32.34724 -5.57575,-54 -0.81774,-8.525 -1.88743,-19.1 -2.37708,-23.5 -1.33763,-12.0199 0.50803,-18.91422 6.60871,-24.68638 5.93188,-5.61245 14.62807,-6.92581 45.8157,-6.91942 13.21297,0.003 30.77358,-0.42452 39.02358,-0.9494 8.25,-0.52488 49.57028,-0.9506 91.82283,-0.94603 76.25381,0.008 76.85966,0.0241 81.79351,2.14662 6.23433,2.68194 11.51957,8.74143 13.36926,15.32776 1.14656,4.08263 1.54175,22.88392 2.10395,100.09464 0.63955,87.83369 0.56319,95.45629 -1.00352,100.17321 -2.03225,6.11852 -8.11128,12.17432 -14.64468,14.58872 -2.44274,0.90271 -17.26635,3.43562 -32.94135,5.62869 -75.42431,10.55253 -131.98655,18.52078 -156.89287,22.1024 -30.39861,4.37143 -31.02823,4.41461 -36.40445,2.49687 z M 234.5,353.53518 c 21.45,-3.00048 41.925,-5.92174 45.5,-6.4917 3.575,-0.56996 13.475,-1.99038 22,-3.15649 50.40207,-6.89434 82.24805,-11.73504 83.15248,-12.63947 0.70916,-0.70916 0.76911,-27.85448 0.1908,-86.3908 L 384.5,159.5 l -32,-0.31807 c -57.43547,-0.57089 -184.33215,0.93191 -184.79015,2.18841 -0.41266,1.13208 -0.0244,5.63585 2.81296,32.62966 3.40856,32.42811 12.60919,121.88974 14.60391,142 1.17291,11.825 2.58654,22.0712 3.14141,22.76933 0.61438,0.77301 2.22549,1.06443 4.12036,0.7453 1.71133,-0.28822 20.66151,-2.97897 42.11151,-5.97945 z m 53.54183,-48.06792 c -5.12215,-2.493 -13.859,-6.11509 -19.41521,-8.04908 -10.67274,-3.71494 -14.05129,-5.98975 -15.09965,-10.16675 C 252.15466,281.7837 257.21472,276 263.37066,276 c 2.89472,0 17.37806,4.97577 26.51766,9.11017 3.51357,1.58941 6.82059,2.88983 7.34894,2.88983 0.52835,0 4.6286,-2.77096 9.11168,-6.15768 14.11681,-10.66448 20.76196,-12.62546 25.4413,-7.50771 5.60689,6.1322 3.64615,11.0665 -7.20247,18.12541 -4.44827,2.89438 -10.74408,7.61224 -13.99068,10.48413 -5.60038,4.954 -9.17048,7.05585 -11.98477,7.05585 -0.69161,0 -5.44833,-2.03973 -10.57049,-4.53274 z M 240.31632,250.05662 C 233.74219,247.07187 233,244.68222 233,226.5 c 0,-17.48556 0.75418,-20.27256 6.26693,-23.15891 4.53287,-2.37331 12.04809,-2.23371 15.48701,0.28769 5.56474,4.08003 6.34474,7.25444 6.03072,24.54358 -0.27498,15.13968 -0.36963,15.76436 -2.78466,18.37888 -2.81492,3.04745 -7.8013,5.45968 -11.21788,5.4268 -1.25517,-0.0121 -4.16478,-0.87672 -6.4658,-1.92142 z m 79.04299,-5.10246 c -4.93782,-3.16351 -5.54091,-5.89262 -5.18143,-23.44729 l 0.32212,-15.73068 3.33218,-2.77953 c 1.83271,-1.52874 4.56028,-3.02515 6.06128,-3.32535 4.16796,-0.83359 10.12958,0.89749 13.01402,3.7789 2.54112,2.53846 2.59882,2.90499 2.91021,18.48855 0.25481,12.75142 0.0161,16.48202 -1.20595,18.84515 -3.02834,5.85618 -13.18648,8.05652 -19.25243,4.17025 z M 109,381.6571 C 106.525,380.93961 97.127543,377.01075 88.116761,372.92629 70.077143,364.74919 64.232913,360.53862 61.523289,353.7666 60.110359,350.23534 50.572756,288.02074 44.465933,242.5 c -0.811636,-6.05 -1.90686,-13.475 -2.43383,-16.5 -0.526971,-3.025 -1.63276,-11.43811 -2.457309,-18.69581 -1.71556,-15.1004 -0.891136,-20.26584 4.141254,-25.9471 3.186491,-3.59735 35.432734,-25.61275 41.651584,-28.43669 5.038873,-2.28811 15.516698,-2.5487 19.507178,-0.48514 4.25912,2.20248 9.90808,9.02046 10.98482,13.25807 0.53199,2.09367 1.25578,7.40667 1.60843,11.80667 0.35265,4.4 1.25993,12.95 2.01617,19 0.75624,6.05 1.85498,15.275 2.44165,20.5 1.77842,15.83921 5.96826,51.99325 7.01125,60.5 0.53947,4.4 1.49893,13.4 2.13213,20 0.63321,6.6 2.45166,22.45601 4.04101,35.23557 3.30648,26.58655 3.49804,31.87277 1.342,37.0329 -4.16442,9.96687 -16.16062,15.16201 -27.45227,11.88863 z m 0,-33.44864 c 0,-1.53534 -0.67068,-7.94784 -1.49041,-14.25 C 103.86682,305.9523 92,191.24688 92,184.04179 c 0,-1.15751 -0.616955,-2.34131 -1.371011,-2.63067 -0.754056,-0.28935 -6.660515,3.16272 -13.125464,7.67129 l -11.754452,8.19739 0.585363,5.1101 c 0.32195,2.81056 2.194545,15.9101 4.161323,29.1101 1.966777,13.2 3.985123,26.925 4.485213,30.5 6.086318,43.50934 11.063015,77.53234 11.528572,78.81464 0.542886,1.4953 18.071836,10.06236 20.740456,10.13664 1.26037,0.0351 1.75,-0.73232 1.75,-2.74282 z m 38.5,-221.26594 c -7.0487,-1.68666 -27.82004,-8.98811 -33.45396,-11.75958 -7.15981,-3.52209 -9.30515,-6.61705 -9.85489,-14.21711 -0.95484,-13.200505 6.81935,-32.907277 18.00542,-45.641875 7.45604,-8.488213 17.55441,-17.624083 22.07488,-19.970872 4.07006,-2.112955 10.31595,-2.149961 14.29333,-0.08469 8.10048,4.206214 35.09848,32.040202 44.57734,45.957657 C 207.42839,87.519434 209.4414,89 213.71175,89 c 3.89319,0 6.71239,-2.201537 10.64627,-8.31374 C 231.42678,69.703272 256.38677,42 259.21342,42 c 3.017,0 7.26921,3.952207 9.4142,8.75 1.89022,4.227942 2.81548,5.25 4.75278,5.25 5.88703,0 3.47107,4.120834 -15.82951,27 -6.28321,7.448196 -10.54607,13.374978 -10.54787,14.665013 -0.002,1.329349 1.8165,3.766627 4.71094,6.314407 4.53767,3.99422 4.90231,4.12587 9.75,3.52012 4.7868,-0.59814 23.50112,-5.27823 31.99948,-8.002451 2.17988,-0.698783 4.42988,-1.090333 5,-0.870112 C 299.7903,99.139516 303,106.88327 303,109.57195 c 0,1.12801 0.92061,3.03908 2.04579,4.24683 l 2.0458,2.1959 -2.7958,1.09484 c -21.05917,8.2468 -20.23398,8.07686 -43.25429,8.90784 -12.72714,0.45942 -22.44415,0.39985 -23.88089,-0.1464 -1.33232,-0.50654 -4.56767,-2.84977 -7.18967,-5.20718 -7.19439,-6.46837 -15.96004,-8.35734 -23.75306,-5.11869 -2.04483,0.84979 -6.09573,3.88729 -9.00199,6.75 l -5.28411,5.20491 -20.21589,0.19984 C 160.59715,127.80975 149.7,127.46896 147.5,126.94252 Z m 28.21855,-21.15836 C 178.62335,102.91545 181,99.819592 181,98.90448 181,94.739448 155.23577,66 151.50191,66 c -3.27649,0 -10.76712,8.758302 -15.05678,17.604932 -4.83213,9.965361 -4.6836,10.735764 2.80487,14.548199 11.55785,5.884189 27.23364,12.750919 29.21855,12.799089 1.08271,0.0263 4.34521,-2.29935 7.25,-5.16806 z m 88.7276,-65.871292 c -0.85813,-1.388479 1.04396,-3.346034 2.42304,-2.493711 C 268.01765,38.128941 267.28228,41 265.95203,41 c -0.4587,0 -1.13634,-0.48921 -1.50588,-1.087132 z"
         id="path10" />
      <path
         style="fill:#e1ca97"
         d="M 176.5,390.06493 C 164.65969,387.18242 158.99357,378.4981 157.53645,361 c -0.3435,-4.125 -1.96197,-20.17966 -3.59659,-35.67701 -1.63462,-15.49736 -4.29712,-41.14736 -5.91666,-57 C 146.40366,252.47034 143.2319,221.725 140.97485,200 c -4.71594,-45.3928 -4.80509,-52.63616 -0.72373,-58.80337 4.71678,-7.12737 8.60199,-8.40854 28.24888,-9.31518 32.6628,-1.50728 116.44754,-2.91984 172.05366,-2.90072 l 56.05365,0.0193 5.31148,2.64682 c 5.71901,2.8499 10.33409,8.73099 12.03608,15.3378 0.49808,1.93346 1.21941,46.52068 1.60296,99.08271 l 0.69737,95.56733 -2.1658,4.89613 c -2.65185,5.99496 -4.38818,7.97396 -9.75636,11.11992 -4.42053,2.59061 -14.58,4.42199 -54.33304,9.79429 -19.71542,2.66438 -48.00991,6.65207 -124.59412,17.55968 -43.73334,6.22879 -43.99481,6.25584 -48.90588,5.06025 z m 23.38067,-30.52472 c 11.81531,-1.79304 65.01869,-9.38379 74.61933,-10.64625 28.93499,-3.80489 110.56677,-15.81719 111.52871,-16.4117 0.9218,-0.56971 1.03835,-20.26313 0.50816,-85.86076 -0.37839,-46.81683 -0.93278,-85.98296 -1.23198,-87.03585 -0.53308,-1.87595 -2.71209,-1.90092 -108.64362,-1.2451 -84.22717,0.52145 -108.36485,0.94421 -109.3006,1.91435 -1.25856,1.30482 -1.14812,3.0795 2.16237,34.7451 0.83375,7.975 3.06733,29.35 4.96352,47.5 1.89619,18.15 5.27522,51.225 7.50895,73.5 2.23374,22.275 4.48891,41.5125 5.01148,42.75 1.12516,2.66449 0.69647,2.63817 12.87368,0.79021 z m 87.53068,-55.38097 C 281.96011,301.49682 274.35,298.28482 270.5,297.02146 c -10.22566,-3.35552 -14.05866,-5.54175 -15.40201,-8.78488 -2.23891,-5.40521 2.13969,-11.26581 8.37452,-11.20899 2.51476,0.0229 17.00478,5.14852 31.25615,11.05635 2.9351,1.21673 3.48064,1.14005 6,-0.84336 7.12542,-5.60961 19.07402,-13.33365 21.85094,-14.12529 4.24158,-1.2092 8.74168,0.83192 10.33966,4.68978 1.93142,4.66286 -0.19845,7.84912 -9.48866,14.19493 -4.42858,3.025 -10.52035,7.61374 -13.53728,10.19719 -4.84611,4.14983 -9.44678,6.80281 -11.79707,6.80281 -0.42546,0 -5.23366,-2.17834 -10.6849,-4.84076 z m -45.07844,-54.21173 c -1.74189,-0.52895 -4.32939,-2.34305 -5.75,-4.03134 C 234.03622,242.8896 234,242.61729 234,226.5 c 0,-16.10104 0.0386,-16.39248 2.573,-19.40439 5.20436,-6.18503 16.17646,-6.06721 20.83791,0.22377 1.85607,2.50491 2.12478,4.46966 2.40905,17.61469 0.35203,16.27872 -0.57956,20.55186 -5.13066,23.53386 -3.18192,2.08487 -8.3322,2.70157 -12.35639,1.47958 z m 79.05521,-4.92758 c -1.16154,-0.46931 -3.07404,-2.07647 -4.25,-3.57147 C 315.17245,238.94951 315,237.53516 315,223.91219 c 0,-9.35871 0.44015,-15.78412 1.19469,-17.44013 C 317.78562,202.98033 321.88281,201 327.51608,201 337.51513,201 339,203.9387 339,223.72783 c 0,16.22102 -0.49275,17.92426 -6.01104,20.77788 -3.15285,1.6304 -8.27627,1.8575 -11.60084,0.51422 z M 109,381.6571 C 106.525,380.93961 97.127543,377.01075 88.116761,372.92629 70.077143,364.74919 64.232913,360.53862 61.523289,353.7666 60.110359,350.23534 50.572756,288.02074 44.465933,242.5 c -0.811636,-6.05 -1.90686,-13.475 -2.43383,-16.5 -0.526971,-3.025 -1.633548,-11.44489 -2.45906,-18.71087 -1.636769,-14.4065 -1.045192,-19.00858 3.212004,-24.98726 3.405828,-4.78304 38.19974,-27.36974 45.125772,-29.29369 6.899132,-1.91648 13.300731,-1.25988 18.236881,1.87054 5.70989,3.6211 8.66866,8.36306 9.85835,15.79979 1.07804,6.73879 4.36983,32.49131 5.92099,46.32149 1.74817,15.5867 5.95739,51.91402 7.01009,60.5 0.53947,4.4 1.49893,13.4 2.13213,20 0.63321,6.6 2.45166,22.45601 4.04101,35.23557 3.30648,26.58655 3.49804,31.87277 1.342,37.0329 -4.16442,9.96687 -16.16062,15.16201 -27.45227,11.88863 z m 0,-33.44864 c 0,-1.53534 -0.67068,-7.94784 -1.49041,-14.25 C 103.86682,305.9523 92,191.24688 92,184.04179 c 0,-1.15751 -0.616955,-2.34131 -1.371011,-2.63067 -0.754056,-0.28935 -6.660515,3.16272 -13.125464,7.67129 l -11.754452,8.19739 0.585363,5.1101 c 0.32195,2.81056 2.194545,15.9101 4.161323,29.1101 1.966777,13.2 3.985123,26.925 4.485213,30.5 6.086318,43.50934 11.063015,77.53234 11.528572,78.81464 0.542886,1.4953 18.071836,10.06236 20.740456,10.13664 1.26037,0.0351 1.75,-0.73232 1.75,-2.74282 z m 38.5,-221.26594 c -7.0487,-1.68666 -27.82004,-8.98811 -33.45396,-11.75958 -7.15981,-3.52209 -9.30515,-6.61705 -9.85489,-14.21711 -0.95484,-13.200505 6.81935,-32.907277 18.00542,-45.641875 7.45604,-8.488213 17.55441,-17.624083 22.07488,-19.970872 4.07006,-2.112955 10.31595,-2.149961 14.29333,-0.08469 8.10048,4.206214 35.09848,32.040202 44.57734,45.957657 C 207.42839,87.519434 209.4414,89 213.71175,89 c 3.89319,0 6.71239,-2.201537 10.64627,-8.31374 C 231.42678,69.703272 256.38677,42 259.21342,42 c 3.017,0 7.26921,3.952207 9.4142,8.75 1.89022,4.227942 2.81548,5.25 4.75278,5.25 5.88703,0 3.47107,4.120834 -15.82951,27 -6.28321,7.448196 -10.54607,13.374978 -10.54787,14.665013 -0.002,1.329349 1.8165,3.766627 4.71094,6.314407 4.53767,3.99422 4.90231,4.12587 9.75,3.52012 4.7868,-0.59814 23.50112,-5.27823 31.99948,-8.002451 2.17988,-0.698783 4.42988,-1.090333 5,-0.870112 C 299.7903,99.139516 303,106.88327 303,109.57195 c 0,1.12801 0.92061,3.03908 2.04579,4.24683 l 2.0458,2.1959 -2.7958,1.09484 c -21.05917,8.2468 -20.23398,8.07686 -43.25429,8.90784 -12.72714,0.45942 -22.44415,0.39985 -23.88089,-0.1464 -1.33232,-0.50654 -4.56767,-2.84977 -7.18967,-5.20718 -7.19439,-6.46837 -15.96004,-8.35734 -23.75306,-5.11869 -2.04483,0.84979 -6.09573,3.88729 -9.00199,6.75 l -5.28411,5.20491 -20.21589,0.19984 C 160.59715,127.80975 149.7,127.46896 147.5,126.94252 Z m 28.21855,-21.15836 C 178.62335,102.91545 181,99.819592 181,98.90448 181,94.739448 155.23577,66 151.50191,66 c -3.27649,0 -10.76712,8.758302 -15.05678,17.604932 -4.83213,9.965361 -4.6836,10.735764 2.80487,14.548199 11.55785,5.884189 27.23364,12.750919 29.21855,12.799089 1.08271,0.0263 4.34521,-2.29935 7.25,-5.16806 z m 88.7276,-65.871292 c -0.85813,-1.388479 1.04396,-3.346034 2.42304,-2.493711 C 268.01765,38.128941 267.28228,41 265.95203,41 c -0.4587,0 -1.13634,-0.48921 -1.50588,-1.087132 z"
         id="path9" />
      <path
         style="fill:#fa96ad"
         d="M 176.5,390.06493 C 164.65969,387.18242 158.99357,378.4981 157.53645,361 c -0.3435,-4.125 -1.96197,-20.17966 -3.59659,-35.67701 -1.63462,-15.49736 -4.29712,-41.14736 -5.91666,-57 C 146.40366,252.47034 143.2319,221.725 140.97485,200 c -4.71594,-45.3928 -4.80509,-52.63616 -0.72373,-58.80337 4.71678,-7.12737 8.60199,-8.40854 28.24888,-9.31518 32.6628,-1.50728 116.44754,-2.91984 172.05366,-2.90072 l 56.05365,0.0193 5.31148,2.64682 c 5.71901,2.8499 10.33409,8.73099 12.03608,15.3378 0.49808,1.93346 1.21941,46.52068 1.60296,99.08271 l 0.69737,95.56733 -2.1658,4.89613 c -2.65185,5.99496 -4.38818,7.97396 -9.75636,11.11992 -4.42053,2.59061 -14.58,4.42199 -54.33304,9.79429 -19.71542,2.66438 -48.00991,6.65207 -124.59412,17.55968 -43.73334,6.22879 -43.99481,6.25584 -48.90588,5.06025 z m 23.38067,-30.52472 c 11.81531,-1.79304 65.01869,-9.38379 74.61933,-10.64625 28.93499,-3.80489 110.56677,-15.81719 111.52871,-16.4117 0.9218,-0.56971 1.03835,-20.26313 0.50816,-85.86076 -0.37839,-46.81683 -0.93278,-85.98296 -1.23198,-87.03585 -0.53308,-1.87595 -2.71209,-1.90092 -108.64362,-1.2451 -84.22717,0.52145 -108.36485,0.94421 -109.3006,1.91435 -1.25856,1.30482 -1.14812,3.0795 2.16237,34.7451 0.83375,7.975 3.06733,29.35 4.96352,47.5 1.89619,18.15 5.27522,51.225 7.50895,73.5 2.23374,22.275 4.48891,41.5125 5.01148,42.75 1.12516,2.66449 0.69647,2.63817 12.87368,0.79021 z m 87.53068,-55.38097 C 281.96011,301.49682 274.35,298.28482 270.5,297.02146 c -10.22566,-3.35552 -14.05866,-5.54175 -15.40201,-8.78488 -2.23891,-5.40521 2.13969,-11.26581 8.37452,-11.20899 2.51476,0.0229 17.00478,5.14852 31.25615,11.05635 2.9351,1.21673 3.48064,1.14005 6,-0.84336 7.12542,-5.60961 19.07402,-13.33365 21.85094,-14.12529 4.24158,-1.2092 8.74168,0.83192 10.33966,4.68978 1.93142,4.66286 -0.19845,7.84912 -9.48866,14.19493 -4.42858,3.025 -10.52035,7.61374 -13.53728,10.19719 -4.84611,4.14983 -9.44678,6.80281 -11.79707,6.80281 -0.42546,0 -5.23366,-2.17834 -10.6849,-4.84076 z m -45.07844,-54.21173 c -1.74189,-0.52895 -4.32939,-2.34305 -5.75,-4.03134 C 234.03622,242.8896 234,242.61729 234,226.5 c 0,-16.10104 0.0386,-16.39248 2.573,-19.40439 5.20436,-6.18503 16.17646,-6.06721 20.83791,0.22377 1.85607,2.50491 2.12478,4.46966 2.40905,17.61469 0.35203,16.27872 -0.57956,20.55186 -5.13066,23.53386 -3.18192,2.08487 -8.3322,2.70157 -12.35639,1.47958 z m 79.05521,-4.92758 c -1.16154,-0.46931 -3.07404,-2.07647 -4.25,-3.57147 C 315.17245,238.94951 315,237.53516 315,223.91219 c 0,-9.35871 0.44015,-15.78412 1.19469,-17.44013 C 317.78562,202.98033 321.88281,201 327.51608,201 337.51513,201 339,203.9387 339,223.72783 c 0,16.22102 -0.49275,17.92426 -6.01104,20.77788 -3.15285,1.6304 -8.27627,1.8575 -11.60084,0.51422 z M 106,378.6424 c -3.575,-1.27348 -9.2,-3.68375 -12.5,-5.35614 -3.3,-1.6724 -9.517939,-4.50064 -13.817642,-6.28497 C 66.050202,361.34408 62.705585,356.84792 60.422309,341.11004 59.655477,335.82452 58.089595,325.2 56.942572,317.5 c -1.147023,-7.7 -2.478902,-17.15 -2.95973,-21 -0.480828,-3.85 -1.384674,-10.375 -2.008546,-14.5 -1.161154,-7.67746 -1.3554,-9.01326 -4.944133,-34 -6.349164,-44.20638 -7.063766,-52.63738 -4.869648,-57.45295 1.439453,-3.15925 2.188433,-3.18963 4.167619,-0.16901 0.905855,1.38251 2.972593,2.6434 4.936845,3.01189 3.190498,0.59854 9.220405,4.25201 9.637473,5.83927 0.105383,0.40106 1.063341,2.6999 2.128796,5.10854 2.059043,4.65481 5.308959,23.82439 11.471126,67.66226 0.889088,6.325 2.474314,17.125 3.522726,24 1.048411,6.875 2.385352,16.1 2.97098,20.5 1.280543,9.6211 2.994757,21.12511 3.626778,24.33911 0.362254,1.84216 2.698532,3.39503 10.996775,7.3093 5.795237,2.73361 11.514097,4.83101 12.708587,4.66089 3.18752,-0.45396 3.10303,-2.18489 -2.33352,-47.8093 -1.08876,-9.13703 -2.56655,-22.36519 -4.02177,-36 -0.49896,-4.675 -1.36399,-12.55 -1.9223,-17.5 -0.558302,-4.95 -1.023092,-13.08406 -1.032864,-18.07569 -0.01642,-8.38973 0.17044,-9.25249 2.472344,-11.41502 2.75216,-2.58552 2.40313,-2.66953 11.89113,2.86237 2.68468,1.56528 5.2089,3.472 5.60938,4.23715 1.33838,2.55709 4.79459,20.27613 5.92799,30.39119 0.61628,5.5 1.56386,13.6 2.10573,18 0.54187,4.4 1.68485,14.75 2.53996,23 0.8551,8.25 2.69646,24 4.09191,35 1.39544,11 2.53129,22.28689 2.5241,25.08199 -0.0164,6.36327 -2.0887,11.42608 -6.17397,15.08329 -6.40253,5.73167 -13.72451,6.63969 -24.00634,2.97712 z m 11.727,-168.24043 c -1.22451,-3.35687 -7.68722,-7.85273 -14.94177,-10.3944 -6.414545,-2.24737 -6.783419,-2.55402 -8.250003,-6.8582 C 93.690852,190.67126 93,187.40603 93,185.89329 c 0,-1.51274 -0.707226,-3.45766 -1.571614,-4.32205 -1.428818,-1.42882 -1.996688,-1.3278 -6.25,1.11174 -2.573112,1.47584 -5.566014,3.27592 -6.650892,4.00018 -2.719967,1.81584 -4.917501,1.64836 -6.884057,-0.52466 -0.916597,-1.01283 -4.056171,-2.65377 -6.976831,-3.64653 -7.10948,-2.41659 -10.410773,-5.09923 -9.025113,-7.33385 2.943543,-4.74696 23.26162,-18.95125 31.120436,-21.75617 13.677331,-4.88162 26.530771,2.30253 29.188001,16.31402 1.28592,6.78066 3.29236,33.81069 2.87744,38.76403 -0.26858,3.20639 -0.48689,3.58375 -1.10037,1.90197 z M 147.5,126.94252 c -7.0487,-1.68666 -27.82004,-8.98811 -33.45396,-11.75958 -7.15981,-3.52209 -9.30515,-6.61705 -9.85489,-14.21711 -0.95484,-13.200505 6.81935,-32.907277 18.00542,-45.641875 7.45604,-8.488213 17.55441,-17.624083 22.07488,-19.970872 4.07006,-2.112955 10.31595,-2.149961 14.29333,-0.08469 8.10048,4.206214 35.09848,32.040202 44.57734,45.957657 C 207.42839,87.519434 209.4414,89 213.71175,89 c 3.89319,0 6.71239,-2.201537 10.64627,-8.31374 C 231.42678,69.703272 256.38677,42 259.21342,42 c 3.017,0 7.26921,3.952207 9.4142,8.75 1.89022,4.227942 2.81548,5.25 4.75278,5.25 5.88703,0 3.47107,4.120834 -15.82951,27 -6.28321,7.448196 -10.54607,13.374978 -10.54787,14.665013 -0.002,1.329349 1.8165,3.766627 4.71094,6.314407 4.53767,3.99422 4.90231,4.12587 9.75,3.52012 4.7868,-0.59814 23.50112,-5.27823 31.99948,-8.002451 2.17988,-0.698783 4.42988,-1.090333 5,-0.870112 C 299.7903,99.139516 303,106.88327 303,109.57195 c 0,1.12801 0.92061,3.03908 2.04579,4.24683 l 2.0458,2.1959 -2.7958,1.09484 c -21.05917,8.2468 -20.23398,8.07686 -43.25429,8.90784 -12.72714,0.45942 -22.44415,0.39985 -23.88089,-0.1464 -1.33232,-0.50654 -4.56767,-2.84977 -7.18967,-5.20718 -7.19439,-6.46837 -15.96004,-8.35734 -23.75306,-5.11869 -2.04483,0.84979 -6.09573,3.88729 -9.00199,6.75 l -5.28411,5.20491 -20.21589,0.19984 C 160.59715,127.80975 149.7,127.46896 147.5,126.94252 Z m 28.21855,-21.15836 C 178.62335,102.91545 181,99.819592 181,98.90448 181,94.739448 155.23577,66 151.50191,66 c -3.27649,0 -10.76712,8.758302 -15.05678,17.604932 -4.83213,9.965361 -4.6836,10.735764 2.80487,14.548199 11.55785,5.884189 27.23364,12.750919 29.21855,12.799089 1.08271,0.0263 4.34521,-2.29935 7.25,-5.16806 z m 88.7276,-65.871292 c -0.85813,-1.388479 1.04396,-3.346034 2.42304,-2.493711 C 268.01765,38.128941 267.28228,41 265.95203,41 c -0.4587,0 -1.13634,-0.48921 -1.50588,-1.087132 z"
         id="path8" />
      <path
         style="fill:#f8b866"
         d="M 176.5,390.06493 C 164.65969,387.18242 158.99357,378.4981 157.53645,361 c -0.3435,-4.125 -1.96197,-20.17966 -3.59659,-35.67701 -1.63462,-15.49736 -4.29712,-41.14736 -5.91666,-57 C 146.40366,252.47034 143.2319,221.725 140.97485,200 c -4.71594,-45.3928 -4.80509,-52.63616 -0.72373,-58.80337 4.71678,-7.12737 8.60199,-8.40854 28.24888,-9.31518 32.6628,-1.50728 116.44754,-2.91984 172.05366,-2.90072 l 56.05365,0.0193 5.31148,2.64682 c 5.71901,2.8499 10.33409,8.73099 12.03608,15.3378 0.49808,1.93346 1.21941,46.52068 1.60296,99.08271 l 0.69737,95.56733 -2.1658,4.89613 c -2.65185,5.99496 -4.38818,7.97396 -9.75636,11.11992 -4.42053,2.59061 -14.58,4.42199 -54.33304,9.79429 -19.71542,2.66438 -48.00991,6.65207 -124.59412,17.55968 -43.73334,6.22879 -43.99481,6.25584 -48.90588,5.06025 z m 23.38067,-30.52472 c 11.81531,-1.79304 65.01869,-9.38379 74.61933,-10.64625 28.93499,-3.80489 110.56677,-15.81719 111.52871,-16.4117 0.9218,-0.56971 1.03835,-20.26313 0.50816,-85.86076 -0.37839,-46.81683 -0.93278,-85.98296 -1.23198,-87.03585 -0.53308,-1.87595 -2.71209,-1.90092 -108.64362,-1.2451 -84.22717,0.52145 -108.36485,0.94421 -109.3006,1.91435 -1.25856,1.30482 -1.14812,3.0795 2.16237,34.7451 0.83375,7.975 3.06733,29.35 4.96352,47.5 1.89619,18.15 5.27522,51.225 7.50895,73.5 2.23374,22.275 4.48891,41.5125 5.01148,42.75 1.12516,2.66449 0.69647,2.63817 12.87368,0.79021 z m 87.53068,-55.38097 C 281.96011,301.49682 274.35,298.28482 270.5,297.02146 c -10.22566,-3.35552 -14.05866,-5.54175 -15.40201,-8.78488 -2.23891,-5.40521 2.13969,-11.26581 8.37452,-11.20899 2.51476,0.0229 17.00478,5.14852 31.25615,11.05635 2.9351,1.21673 3.48064,1.14005 6,-0.84336 7.12542,-5.60961 19.07402,-13.33365 21.85094,-14.12529 4.24158,-1.2092 8.74168,0.83192 10.33966,4.68978 1.93142,4.66286 -0.19845,7.84912 -9.48866,14.19493 -4.42858,3.025 -10.52035,7.61374 -13.53728,10.19719 -4.84611,4.14983 -9.44678,6.80281 -11.79707,6.80281 -0.42546,0 -5.23366,-2.17834 -10.6849,-4.84076 z m -45.07844,-54.21173 c -1.74189,-0.52895 -4.32939,-2.34305 -5.75,-4.03134 C 234.03622,242.8896 234,242.61729 234,226.5 c 0,-16.10104 0.0386,-16.39248 2.573,-19.40439 5.20436,-6.18503 16.17646,-6.06721 20.83791,0.22377 1.85607,2.50491 2.12478,4.46966 2.40905,17.61469 0.35203,16.27872 -0.57956,20.55186 -5.13066,23.53386 -3.18192,2.08487 -8.3322,2.70157 -12.35639,1.47958 z m 79.05521,-4.92758 c -1.16154,-0.46931 -3.07404,-2.07647 -4.25,-3.57147 C 315.17245,238.94951 315,237.53516 315,223.91219 c 0,-9.35871 0.44015,-15.78412 1.19469,-17.44013 C 317.78562,202.98033 321.88281,201 327.51608,201 337.51513,201 339,203.9387 339,223.72783 c 0,16.22102 -0.49275,17.92426 -6.01104,20.77788 -3.15285,1.6304 -8.27627,1.8575 -11.60084,0.51422 z M 106,378.6424 c -3.575,-1.27348 -9.2,-3.68375 -12.5,-5.35614 -3.3,-1.6724 -9.517939,-4.50064 -13.817642,-6.28497 C 66.050202,361.34408 62.705585,356.84792 60.422309,341.11004 59.655477,335.82452 58.089595,325.2 56.942572,317.5 c -1.147023,-7.7 -2.478902,-17.15 -2.95973,-21 -0.480828,-3.85 -1.384674,-10.375 -2.008546,-14.5 -1.161154,-7.67746 -1.3554,-9.01326 -4.944133,-34 -6.349164,-44.20638 -7.063766,-52.63738 -4.869648,-57.45295 1.439453,-3.15925 2.188433,-3.18963 4.167619,-0.16901 0.905855,1.38251 2.972593,2.6434 4.936845,3.01189 3.190498,0.59854 9.220405,4.25201 9.637473,5.83927 0.105383,0.40106 1.063341,2.6999 2.128796,5.10854 2.059043,4.65481 5.308959,23.82439 11.471126,67.66226 0.889088,6.325 2.474314,17.125 3.522726,24 1.048411,6.875 2.385352,16.1 2.97098,20.5 1.280543,9.6211 2.994757,21.12511 3.626778,24.33911 0.362254,1.84216 2.698532,3.39503 10.996775,7.3093 5.795237,2.73361 11.514097,4.83101 12.708587,4.66089 3.18752,-0.45396 3.10303,-2.18489 -2.33352,-47.8093 -1.08876,-9.13703 -2.56655,-22.36519 -4.02177,-36 -0.49896,-4.675 -1.36399,-12.55 -1.9223,-17.5 -0.558302,-4.95 -1.023092,-13.08406 -1.032864,-18.07569 -0.01642,-8.38973 0.17044,-9.25249 2.472344,-11.41502 2.75216,-2.58552 2.40313,-2.66953 11.89113,2.86237 2.68468,1.56528 5.2089,3.472 5.60938,4.23715 1.33838,2.55709 4.79459,20.27613 5.92799,30.39119 0.61628,5.5 1.56386,13.6 2.10573,18 0.54187,4.4 1.68485,14.75 2.53996,23 0.8551,8.25 2.69646,24 4.09191,35 1.39544,11 2.53129,22.28689 2.5241,25.08199 -0.0164,6.36327 -2.0887,11.42608 -6.17397,15.08329 -6.40253,5.73167 -13.72451,6.63969 -24.00634,2.97712 z m 11.727,-168.24043 c -1.22451,-3.35687 -7.68722,-7.85273 -14.94177,-10.3944 -6.414545,-2.24737 -6.783419,-2.55402 -8.250003,-6.8582 C 93.690852,190.67126 93,187.40603 93,185.89329 c 0,-1.51274 -0.707226,-3.45766 -1.571614,-4.32205 -1.428818,-1.42882 -1.996688,-1.3278 -6.25,1.11174 -2.573112,1.47584 -5.566014,3.27592 -6.650892,4.00018 -2.719967,1.81584 -4.917501,1.64836 -6.884057,-0.52466 -0.916597,-1.01283 -4.056171,-2.65377 -6.976831,-3.64653 -7.10948,-2.41659 -10.410773,-5.09923 -9.025113,-7.33385 2.943543,-4.74696 23.26162,-18.95125 31.120436,-21.75617 13.677331,-4.88162 26.530771,2.30253 29.188001,16.31402 1.28592,6.78066 3.29236,33.81069 2.87744,38.76403 -0.26858,3.20639 -0.48689,3.58375 -1.10037,1.90197 z"
         id="path7" />
      <path
         style="fill:#a7cb9e"
         d="M 176.5,390.06493 C 164.65969,387.18242 158.99357,378.4981 157.53645,361 c -0.3435,-4.125 -1.96197,-20.17966 -3.59659,-35.67701 -1.63462,-15.49736 -4.29712,-41.14736 -5.91666,-57 C 146.40366,252.47034 143.2319,221.725 140.97485,200 c -4.71594,-45.3928 -4.80509,-52.63616 -0.72373,-58.80337 4.71678,-7.12737 8.60199,-8.40854 28.24888,-9.31518 32.6628,-1.50728 116.44754,-2.91984 172.05366,-2.90072 l 56.05365,0.0193 5.31148,2.64682 c 5.71901,2.8499 10.33409,8.73099 12.03608,15.3378 0.49808,1.93346 1.21941,46.52068 1.60296,99.08271 l 0.69737,95.56733 -2.1658,4.89613 c -2.65185,5.99496 -4.38818,7.97396 -9.75636,11.11992 -4.42053,2.59061 -14.58,4.42199 -54.33304,9.79429 -19.71542,2.66438 -48.00991,6.65207 -124.59412,17.55968 -43.73334,6.22879 -43.99481,6.25584 -48.90588,5.06025 z m 23.38067,-30.52472 c 11.81531,-1.79304 65.01869,-9.38379 74.61933,-10.64625 28.93499,-3.80489 110.56677,-15.81719 111.52871,-16.4117 0.9218,-0.56971 1.03835,-20.26313 0.50816,-85.86076 -0.37839,-46.81683 -0.93278,-85.98296 -1.23198,-87.03585 -0.53308,-1.87595 -2.71209,-1.90092 -108.64362,-1.2451 -84.22717,0.52145 -108.36485,0.94421 -109.3006,1.91435 -1.25856,1.30482 -1.14812,3.0795 2.16237,34.7451 0.83375,7.975 3.06733,29.35 4.96352,47.5 1.89619,18.15 5.27522,51.225 7.50895,73.5 2.23374,22.275 4.48891,41.5125 5.01148,42.75 1.12516,2.66449 0.69647,2.63817 12.87368,0.79021 z m 87.53068,-55.38097 C 281.96011,301.49682 274.35,298.28482 270.5,297.02146 c -10.22566,-3.35552 -14.05866,-5.54175 -15.40201,-8.78488 -2.23891,-5.40521 2.13969,-11.26581 8.37452,-11.20899 2.51476,0.0229 17.00478,5.14852 31.25615,11.05635 2.9351,1.21673 3.48064,1.14005 6,-0.84336 7.12542,-5.60961 19.07402,-13.33365 21.85094,-14.12529 4.24158,-1.2092 8.74168,0.83192 10.33966,4.68978 1.93142,4.66286 -0.19845,7.84912 -9.48866,14.19493 -4.42858,3.025 -10.52035,7.61374 -13.53728,10.19719 -4.84611,4.14983 -9.44678,6.80281 -11.79707,6.80281 -0.42546,0 -5.23366,-2.17834 -10.6849,-4.84076 z m -45.07844,-54.21173 c -1.74189,-0.52895 -4.32939,-2.34305 -5.75,-4.03134 C 234.03622,242.8896 234,242.61729 234,226.5 c 0,-16.10104 0.0386,-16.39248 2.573,-19.40439 5.20436,-6.18503 16.17646,-6.06721 20.83791,0.22377 1.85607,2.50491 2.12478,4.46966 2.40905,17.61469 0.35203,16.27872 -0.57956,20.55186 -5.13066,23.53386 -3.18192,2.08487 -8.3322,2.70157 -12.35639,1.47958 z m 79.05521,-4.92758 c -1.16154,-0.46931 -3.07404,-2.07647 -4.25,-3.57147 C 315.17245,238.94951 315,237.53516 315,223.91219 c 0,-9.35871 0.44015,-15.78412 1.19469,-17.44013 C 317.78562,202.98033 321.88281,201 327.51608,201 337.51513,201 339,203.9387 339,223.72783 c 0,16.22102 -0.49275,17.92426 -6.01104,20.77788 -3.15285,1.6304 -8.27627,1.8575 -11.60084,0.51422 z M 117.727,210.40197 c -1.22451,-3.35687 -7.68722,-7.85273 -14.94177,-10.3944 -6.414545,-2.24737 -6.783419,-2.55402 -8.250003,-6.8582 C 93.690852,190.67126 93,187.40603 93,185.89329 c 0,-1.51274 -0.707226,-3.45766 -1.571614,-4.32205 -1.428818,-1.42882 -1.996688,-1.3278 -6.25,1.11174 -2.573112,1.47584 -5.566014,3.27592 -6.650892,4.00018 -2.719967,1.81584 -4.917501,1.64836 -6.884057,-0.52466 -0.916597,-1.01283 -4.056171,-2.65377 -6.976831,-3.64653 -7.10948,-2.41659 -10.410773,-5.09923 -9.025113,-7.33385 2.943543,-4.74696 23.26162,-18.95125 31.120436,-21.75617 13.677331,-4.88162 26.530771,2.30253 29.188001,16.31402 1.28592,6.78066 3.29236,33.81069 2.87744,38.76403 -0.26858,3.20639 -0.48689,3.58375 -1.10037,1.90197 z"
         id="path6" />
      <path
         style="fill:#64c5cf"
         d="M 176.5,390.06493 C 164.65969,387.18242 158.99357,378.4981 157.53645,361 c -0.3435,-4.125 -1.96197,-20.17966 -3.59659,-35.67701 -1.63462,-15.49736 -4.29712,-41.14736 -5.91666,-57 C 146.40366,252.47034 143.2319,221.725 140.97485,200 c -4.71594,-45.3928 -4.80509,-52.63616 -0.72373,-58.80337 4.71678,-7.12737 8.60199,-8.40854 28.24888,-9.31518 32.6628,-1.50728 116.44754,-2.91984 172.05366,-2.90072 l 56.05365,0.0193 5.31148,2.64682 c 5.71901,2.8499 10.33409,8.73099 12.03608,15.3378 0.49808,1.93346 1.21941,46.52068 1.60296,99.08271 l 0.69737,95.56733 -2.1658,4.89613 c -2.65185,5.99496 -4.38818,7.97396 -9.75636,11.11992 -4.42053,2.59061 -14.58,4.42199 -54.33304,9.79429 -19.71542,2.66438 -48.00991,6.65207 -124.59412,17.55968 -43.73334,6.22879 -43.99481,6.25584 -48.90588,5.06025 z m 23.38067,-30.52472 c 11.81531,-1.79304 65.01869,-9.38379 74.61933,-10.64625 28.93499,-3.80489 110.56677,-15.81719 111.52871,-16.4117 0.9218,-0.56971 1.03835,-20.26313 0.50816,-85.86076 -0.37839,-46.81683 -0.93278,-85.98296 -1.23198,-87.03585 -0.53308,-1.87595 -2.71209,-1.90092 -108.64362,-1.2451 -84.22717,0.52145 -108.36485,0.94421 -109.3006,1.91435 -1.25856,1.30482 -1.14812,3.0795 2.16237,34.7451 0.83375,7.975 3.06733,29.35 4.96352,47.5 1.89619,18.15 5.27522,51.225 7.50895,73.5 2.23374,22.275 4.48891,41.5125 5.01148,42.75 1.12516,2.66449 0.69647,2.63817 12.87368,0.79021 z m 87.53068,-55.38097 C 281.96011,301.49682 274.35,298.28482 270.5,297.02146 c -10.22566,-3.35552 -14.05866,-5.54175 -15.40201,-8.78488 -2.23891,-5.40521 2.13969,-11.26581 8.37452,-11.20899 2.51476,0.0229 17.00478,5.14852 31.25615,11.05635 2.9351,1.21673 3.48064,1.14005 6,-0.84336 7.12542,-5.60961 19.07402,-13.33365 21.85094,-14.12529 4.24158,-1.2092 8.74168,0.83192 10.33966,4.68978 1.93142,4.66286 -0.19845,7.84912 -9.48866,14.19493 -4.42858,3.025 -10.52035,7.61374 -13.53728,10.19719 -4.84611,4.14983 -9.44678,6.80281 -11.79707,6.80281 -0.42546,0 -5.23366,-2.17834 -10.6849,-4.84076 z m -45.07844,-54.21173 c -1.74189,-0.52895 -4.32939,-2.34305 -5.75,-4.03134 C 234.03622,242.8896 234,242.61729 234,226.5 c 0,-16.10104 0.0386,-16.39248 2.573,-19.40439 5.20436,-6.18503 16.17646,-6.06721 20.83791,0.22377 1.85607,2.50491 2.12478,4.46966 2.40905,17.61469 0.35203,16.27872 -0.57956,20.55186 -5.13066,23.53386 -3.18192,2.08487 -8.3322,2.70157 -12.35639,1.47958 z m 79.05521,-4.92758 c -1.16154,-0.46931 -3.07404,-2.07647 -4.25,-3.57147 C 315.17245,238.94951 315,237.53516 315,223.91219 c 0,-9.35871 0.44015,-15.78412 1.19469,-17.44013 C 317.78562,202.98033 321.88281,201 327.51608,201 337.51513,201 339,203.9387 339,223.72783 c 0,16.22102 -0.49275,17.92426 -6.01104,20.77788 -3.15285,1.6304 -8.27627,1.8575 -11.60084,0.51422 z"
         id="path5" />
      <path
         style="fill:#24bad0"
         d="m 171.90033,387.00904 c -5.3139,-2.80861 -9.6603,-8.31949 -11.24955,-14.2635 C 159.8794,369.8605 158.2812,357.375 157.09922,345 c -1.87079,-19.58656 -4.77462,-47.93011 -13.16499,-128.5 -6.69631,-64.30232 -6.74668,-65.08412 -4.56191,-70.80486 2.18128,-5.71159 5.97999,-9.17566 12.12768,-11.05933 6.3322,-1.94021 73.14212,-3.59588 174,-4.31205 l 70,-0.49706 5.49381,2.83665 c 7.0571,3.64383 10.737,8.83536 11.93631,16.83952 1.44811,9.66466 2.46374,189.32072 1.09892,194.38928 -1.34285,4.98696 -6.67211,11.23606 -11.56035,13.55568 -3.94183,1.87053 -14.15772,3.55492 -54.96869,9.06326 -13.66666,1.84461 -50.78009,7.0835 -63.5,8.96358 -5.225,0.77229 -14.9,2.11567 -21.5,2.98529 -6.6,0.86962 -14.925,2.01861 -18.5,2.55332 -3.575,0.53472 -13.025,1.90584 -21,3.04695 -7.975,1.1411 -18.8287,2.71937 -24.11933,3.50725 -13.40357,1.99607 -22.50355,1.80772 -26.98034,-0.55844 z m 29.98034,-26.44156 c 17.47887,-2.60296 38.50515,-5.6489 46.11933,-6.681 4.125,-0.55914 11.775,-1.64167 17,-2.40561 11.5097,-1.68284 41.40886,-5.91075 85,-12.0195 17.875,-2.50495 33.54532,-4.81553 34.82293,-5.13463 1.27761,-0.31909 2.64197,-1.53564 3.03192,-2.70345 1.23692,-3.70429 -0.78084,-171.82919 -2.08102,-173.39581 -0.96085,-1.15775 -18.39569,-1.32542 -109.42305,-1.05233 -99.28678,0.29787 -108.41793,0.46272 -109.93965,1.98478 -1.54608,1.54643 -1.54323,2.77725 0.0418,18 0.93574,8.98704 2.32253,22.64007 3.08176,30.34007 1.69275,17.16751 4.00027,39.40176 6.01938,58 0.83595,7.7 3.29083,31.66883 5.45529,53.26408 2.16446,21.59524 4.41366,40.15774 4.99821,41.25 1.27849,2.38888 3.11744,2.45299 15.87314,0.5534 z M 286.5,302.45995 c -4.95,-2.40482 -13.05,-5.78347 -18,-7.50813 -10.6206,-3.70038 -12.5,-5.13386 -12.5,-9.53423 0,-3.48684 3.68151,-7.41759 6.94727,-7.41759 2.44762,0 17.46136,5.23093 25.44105,8.8639 3.78857,1.72486 7.77059,3.1361 8.84894,3.1361 1.07835,0 5.56428,-2.71543 9.96874,-6.03429 13.18004,-9.93146 19.50283,-12.15491 23.13901,-8.13697 1.95585,2.16119 2.17184,7.1454 0.40499,9.34554 -0.6875,0.85609 -4.4,3.56416 -8.25,6.01792 -3.85,2.45376 -9.92169,7.01432 -13.49264,10.13459 -8.0905,7.06941 -10.08198,7.16967 -22.50736,1.13316 z m -46.38993,-54.85546 c -4.36153,-2.41741 -5.03673,-5.117 -5.07463,-20.28939 -0.0195,-7.8017 0.38699,-15.29598 0.9033,-16.65397 C 237.72762,205.956 240.90684,204 246.76548,204 c 4.58513,0 5.81134,0.42297 8.22579,2.83742 3.58418,3.58418 4.334,8.2803 3.864,24.20009 l -0.3581,12.12907 -3.26436,2.91671 c -2.65203,2.36959 -4.15242,2.91006 -7.99859,2.88127 -2.60382,-0.0195 -5.80969,-0.63152 -7.12415,-1.36007 z m 82.27805,-3.58456 c -1.16154,-0.46931 -3.07404,-2.07647 -4.25,-3.57147 C 316.17032,237.9468 316,236.5383 316,222.76635 v -14.96393 l 3.10576,-2.90121 c 4.16742,-3.89296 11.36518,-4.1193 15.58848,-0.49021 2.80517,2.4105 2.80583,2.41409 3.13134,17.11042 0.21374,9.64976 -0.0756,15.66796 -0.84225,17.51884 -1.92704,4.65228 -9.23472,7.14555 -14.59521,4.97967 z"
         id="path4" />
      <path
         style="fill:#1db7d9"
         d="m 171.90033,387.00904 c -5.3139,-2.80861 -9.6603,-8.31949 -11.24955,-14.2635 C 159.8794,369.8605 158.2812,357.375 157.09922,345 c -1.94434,-20.3566 -9.51501,-94.34525 -12.07402,-118 -0.56525,-5.225 -1.70611,-16.25 -2.53525,-24.5 -0.82915,-8.25 -1.72777,-16.8 -1.99693,-19 l -0.4894,-4 1.97436,2.33135 c 1.65893,1.95889 1.87785,3.2546 1.37033,8.11032 -0.67295,6.43839 0.84145,11.42271 2.0308,6.68396 0.4339,-1.72877 1.33564,-2.62563 2.63994,-2.62563 1.58941,0 1.98095,0.67766 1.98095,3.42857 0,3.97169 2.75267,7.5677 4.13,5.39532 0.60913,-0.96074 0.84357,-0.75452 0.85469,0.7518 0.014,1.8925 3.74534,6.42431 5.28962,6.42431 0.35497,0 1.1847,-1.8 1.84384,-4 0.68144,-2.27444 1.82338,-4 2.64713,-4 0.91235,0 1.22317,0.58771 0.83955,1.58742 -0.33504,0.87308 -0.86152,3.46058 -1.16997,5.75 -0.94126,6.98648 -1.4291,8.66258 -2.5213,8.66258 -0.61057,0 -0.76945,-0.87869 -0.38048,-2.10421 0.65678,-2.06935 0.61647,-2.06624 -2.43262,0.18806 -3.0587,2.26139 -4.16901,6.13772 -2.12066,7.40367 0.57683,0.3565 0.72701,3.02423 0.36514,6.48637 -0.76725,7.34065 -0.0347,9.84347 2.31114,7.89658 1.43125,-1.18784 1.55959,-1.10929 1.04148,0.63737 -0.32501,1.09569 -0.88033,3.62813 -1.23405,5.62764 -0.81216,4.59101 1.11398,6.10407 2.06641,1.62325 0.38097,-1.7923 1.25417,-3.93373 1.94044,-4.75873 2.70316,-3.24958 4.77612,-18 2.52964,-18 -0.55,0 -1,-0.70156 -1,-1.55902 0,-0.88921 0.47766,-1.2638 1.1118,-0.87188 1.67094,1.03269 2.8414,-1.53547 2.99393,-6.5691 0.23945,-7.90216 3.19531,18.12957 11.89578,104.76408 2.16876,21.59524 4.42147,40.15774 5.00602,41.25 1.22073,2.28094 3.54641,2.44882 12.8998,0.93119 3.52403,-0.57179 9.37403,-1.42577 13,-1.89773 3.62597,-0.47196 14.69267,-2.02212 24.59267,-3.44479 9.9,-1.42267 22.725,-3.26209 28.5,-4.08761 5.775,-0.82551 15.0537,-2.17913 20.61933,-3.00804 12.42742,-1.85085 12.44982,-1.85088 11.74553,-0.0155 -0.32909,0.85761 0.12177,1.75794 1.06078,2.11827 1.50125,0.57608 1.49772,0.72571 -0.0437,1.85284 -1.90222,1.39093 -1.37999,5.08446 1.29645,9.16922 1.48926,2.27289 1.73383,2.32803 3.93348,0.88677 2.2211,-1.45533 2.37791,-1.40761 2.95706,0.8999 0.33636,1.34019 1.23838,2.67724 2.00447,2.97122 1.87881,0.72097 0.65804,3.61021 -1.52539,3.61021 -0.95591,0 -2.56788,-0.91698 -3.58215,-2.03773 -1.723,-1.9039 -1.90819,-1.92323 -2.81976,-0.29435 -0.90902,1.62432 -1.02788,1.60982 -1.74058,-0.21227 -0.6567,-1.67891 -0.77489,-1.57688 -0.83522,0.72103 -0.0443,1.68855 -0.71632,2.82754 -1.82029,3.08536 -0.9625,0.22478 1.4,0.19922 5.25,-0.0568 3.85,-0.25601 7.61941,-0.95926 8.37647,-1.56277 0.75706,-0.60351 2.93888,-1.19724 4.84849,-1.31941 1.90961,-0.12216 4.53686,-0.91983 5.83834,-1.77259 2.64439,-1.73267 5.89108,-2.0947 4.9367,-0.55048 -0.35956,0.58179 0.63661,1 2.38197,1 1.65,0 3.22373,0.36201 3.49718,0.80446 0.27345,0.44245 -6.78749,1.82818 -15.69098,3.0794 -8.90349,1.25121 -21.81317,3.1127 -28.68817,4.13664 -6.875,1.02394 -17.9,2.57245 -24.5,3.44115 -6.6,0.86869 -14.925,2.01692 -18.5,2.55163 -3.575,0.53472 -13.025,1.90584 -21,3.04695 -7.975,1.1411 -18.8287,2.71937 -24.11933,3.50725 -13.40357,1.99607 -22.50355,1.80772 -26.98034,-0.55844 z m 114.82884,-14.61321 c -0.33229,-0.33229 -1.1948,-0.36781 -1.91667,-0.0789 -0.79773,0.31922 -0.56078,0.55618 0.60417,0.60416 1.05416,0.0434 1.64479,-0.19293 1.3125,-0.52522 z m -1.87383,-9.25182 c 3.51046,-2.69995 2.53552,-5.64401 -1.86904,-5.64401 -3.12189,0 -3.45893,0.26132 -3.22442,2.5 0.57415,5.48094 1.39566,5.98803 5.09346,3.14401 z m 11.23399,-6.2071 c -0.51278,-2.61453 -0.90959,-3.41008 -0.96611,-1.93691 -0.10379,2.70526 0.90968,7.30043 1.48354,6.72657 0.19402,-0.19402 -0.0388,-2.34937 -0.51743,-4.78966 z M 169.98469,247.25 c 0.009,-1.34014 -0.59126,-2.25 -1.48469,-2.25 -1.53862,0 -2.18125,4.98542 -0.81831,6.34836 0.95508,0.95508 2.28471,-1.4111 2.303,-4.09836 z m -18.56159,-4.70038 c -0.84982,-3.38594 -2.32893,-1.50784 -1.64211,2.08506 0.29355,1.5356 0.83714,2.14719 1.40433,1.58 0.50897,-0.50897 0.61597,-2.15824 0.23778,-3.66506 z M 171.075,237.725 c -0.0412,-0.39875 -0.11986,-1.9625 -0.17468,-3.475 L 170.80064,231.5 170,234 c -1.16832,3.64808 -1.14388,5.21463 0.075,4.80833 0.59125,-0.19708 1.04125,-0.68458 1,-1.08333 z m -17.14529,-8.975 c 0.068,-5.56534 -0.0145,-5.75 -2.569,-5.75 -2.56452,0 -2.6232,0.13588 -2.07119,4.79669 0.31245,2.63819 1.14179,6.05582 1.84297,7.59474 1.12701,2.47353 1.35908,2.58409 2.00091,0.95331 0.39931,-1.01461 0.75766,-4.43224 0.79631,-7.59474 z M 335,366.5 c 0.68469,-0.825 2.20229,-1.53163 3.37244,-1.57029 2.06699,-0.0683 2.07062,-0.0927 0.12756,-0.85636 -1.68305,-0.66151 -1.44534,-0.87156 1.5,-1.32545 1.925,-0.29665 4.625,-0.85032 6,-1.23038 1.77041,-0.48935 2.09456,-0.40448 1.11073,0.29082 -1.10536,0.7812 -0.81497,1.28275 1.42104,2.45431 l 2.8103,1.47247 -6.50295,1.13244 C 341.2625,367.4904 337.30543,368 336.04564,368 334.123,368 333.95505,367.75908 335,366.5 Z m 22.5,-2.37066 c 3.12575,-1.37109 15.18622,-2.5181 14,-1.33147 -0.55,0.55019 -4.375,1.27223 -8.5,1.60455 -4.62593,0.37267 -6.73358,0.26802 -5.5,-0.27308 z m -43.05735,-6.45962 c -1.14376,-1.22749 -2.03188,-3.49669 -2,-5.11012 0.0511,-2.5842 -0.32528,-2.9473 -3.43507,-3.31411 -3.94873,-0.46578 -5.82234,-2.41182 -3.21679,-3.34115 3.51472,-1.25361 10.35479,-1.94891 9.76369,-0.99249 -0.32599,0.52746 0.59612,2.14784 2.04913,3.60086 1.95375,1.95374 2.34942,2.93426 1.51912,3.76456 C 318.50523,352.89477 318,354.885 318,356.7 c 0,3.82792 -0.71301,4.02228 -3.55735,0.96972 z M 337,353.09579 C 337,352.00362 339.49217,351 342.20423,351 c 1.5419,0 1.78169,0.31204 0.9811,1.27669 -1.22415,1.47501 -6.18533,2.132 -6.18533,0.8191 z m 72.03327,-1.65466 c -0.0487,-1.55038 2.69978,-5.04141 3.40997,-4.33122 0.33372,0.33372 -0.28951,1.68301 -1.38497,2.99843 -1.09545,1.31541 -2.0067,1.91517 -2.025,1.33279 z m -81.80549,-3.62447 c 0.50915,-1.52746 6.65029,-1.80438 7.02222,-0.31666 0.1375,0.55 -1.485,1.1425 -3.60555,1.31666 -2.84149,0.23337 -3.74012,-0.0296 -3.41667,-1 z M 407,346.36602 c 0,-1.50155 2.43152,-8.97345 3.28839,-10.10501 0.51602,-0.68144 1.33724,-0.99239 1.82492,-0.69098 1.61177,0.99613 0.92142,6.1161 -1.18589,8.79511 C 408.99997,346.81549 407,347.83441 407,346.36602 Z M 322.5,344 c -0.36155,-0.585 0.67595,-1 2.5,-1 1.82405,0 2.86155,0.415 2.5,1 -0.33992,0.55 -1.46492,1 -2.5,1 -1.03508,0 -2.16008,-0.45 -2.5,-1 z m 14.5,-1.5 c -1.05718,-1.27382 -0.81176,-1.50206 1.62756,-1.51365 1.57984,-0.008 3.93601,-0.29835 5.23593,-0.64631 2.16211,-0.57875 2.26561,-0.44979 1.21481,1.51365 -1.36202,2.54496 -6.18249,2.93062 -8.0783,0.64631 z m 15.90932,-2.57721 c -1.02567,-0.6493 -0.66071,-0.89633 1.34068,-0.90748 2.98623,-0.0166 3.52394,0.47372 1.40932,1.28518 -0.73738,0.28296 -1.97488,0.11299 -2.75,-0.3777 z m 39.38799,-9.82736 c -1.97691,-3.43496 -2.08775,-4.53471 -1.37733,-13.66551 0.42493,-5.46145 0.58166,-15.32992 0.34829,-21.92992 -0.23337,-6.6 -0.57683,-28.425 -0.76326,-48.5 -0.18643,-20.075 -0.59872,-42.125 -0.91621,-49 -0.31748,-6.875 -0.49018,-16.775 -0.38378,-22 0.30644,-15.04785 0.23854,-15.85239 -1.50004,-17.7735 -1.56248,-1.72652 -4.7879,-1.80892 -62.92594,-1.60758 -49.79881,0.17247 -62.59044,-0.0553 -68.27904,-1.21557 -5.39381,-1.10018 -11.44954,-1.28014 -26.39167,-0.78429 l -19.39168,0.6435 0.48589,-2.54175 c 0.38255,-2.00116 -0.0659,-2.80683 -2.10833,-3.78817 -3.26346,-1.56798 -10.02667,-1.90367 -9.77845,-0.48535 0.10133,0.57899 -0.71576,1.09858 -1.81576,1.15465 -3.715,0.18935 -4.00681,0.46515 -1.79375,1.69527 2.92667,1.62677 1.62927,3.76347 -1.56077,2.57046 -1.48962,-0.55709 -2.1485,-1.41742 -1.79367,-2.34208 0.30846,-0.80385 0.15015,-1.71536 -0.35181,-2.02559 -0.50196,-0.31023 -0.67966,-1.17121 -0.3949,-1.91329 0.38175,-0.99484 -0.58075,-1.36441 -3.66427,-1.40696 -2.86305,-0.0395 -4.91375,-0.74513 -6.50205,-2.23726 -2.03762,-1.91425 -2.7145,-2.04202 -5.56092,-1.04976 -5.78068,2.01516 -12.93449,-0.56503 -10.86239,-3.91777 1.23908,-2.00486 12.32844,-1.72133 23.21013,0.59344 1.49908,0.31889 3.29908,0.21733 4,-0.22569 0.70092,-0.44301 5.0994,-1.63831 9.7744,-2.65623 6.67375,-1.45311 13.97876,-1.93024 34,-2.22074 14.025,-0.2035 33.825,-0.82505 44,-1.38122 25.30571,-1.38322 113.27012,-0.944 118.36164,0.591 4.6777,1.41024 9.10714,5.44284 11.88973,10.82448 2.02788,3.922 2.0767,5.53071 2.50375,82.5 0.41062,74.00828 0.33199,78.75749 -1.3742,83 -1.18413,2.94436 -1.79269,6.97356 -1.76039,11.65528 0.0384,5.57034 -0.24634,7.0418 -1.28559,6.64301 C 407.60072,327.01654 407,326.15917 407,325.39301 c 0,-2.04388 -2.29472,-1.6976 -4.3044,0.64954 -0.96189,1.1234 -2.25643,1.72887 -2.87675,1.34549 -0.704,-0.43509 -0.84954,-0.24671 -0.38727,0.50126 0.80094,1.29594 -0.7967,3.70055 -3.37572,5.0808 -1.2398,0.66352 -2.10155,0.004 -3.75855,-2.87467 z m 4.28305,-5.65793 C 395.34301,323.20015 395,323.1548 395,324.22857 c 0,1.82207 2.36234,4.18441 2.81786,2.81786 0.18857,-0.56572 -0.36831,-1.73973 -1.2375,-2.60893 z m 2.8618,-40.9375 c -0.65236,-1.1 -1.58122,-1.90149 -2.06413,-1.78109 -1.57194,0.39192 -1.52013,4.91827 0.0714,6.23913 0.85281,0.70777 1.61442,2.24425 1.69247,3.4144 0.078,1.17016 0.4444,0.32756 0.81413,-1.87244 0.41687,-2.48054 0.22167,-4.75973 -0.51388,-6 z m -5.75905,1.3125 c -0.31922,-0.79773 -0.55618,-0.56078 -0.60416,0.60417 -0.0434,1.05416 0.19293,1.64479 0.52522,1.3125 0.33229,-0.33229 0.36781,-1.1948 0.0789,-1.91667 z M 262,151.03168 c 0,-0.41488 -1.16638,-0.53137 -2.59195,-0.25885 -1.73778,0.33219 -2.1796,0.75033 -1.34068,1.2688 C 259.4387,152.88917 262,152.23139 262,151.03168 Z M 225.5,143 c -0.33992,-0.55 -2.39148,-1 -4.55902,-1 -2.16754,0 -3.94098,0.45 -3.94098,1 0,0.55 2.05156,1 4.55902,1 2.7847,0 4.31848,-0.38919 3.94098,-1 z m -21.88264,-1.28403 c 0.97623,-0.97622 -2.34735,-2.03356 -4.18074,-1.33002 -0.85986,0.32996 -1.28719,1.04682 -0.94962,1.59302 0.64657,1.04617 3.99273,0.87463 5.13036,-0.263 z m 184.46159,189.7007 c 0.048,-1.16495 0.28494,-1.4019 0.60416,-0.60417 0.28887,0.72187 0.25335,1.58438 -0.0789,1.91667 -0.33229,0.33229 -0.56864,-0.25834 -0.52522,-1.3125 z M 273,296 c 0,-0.55 0.45,-1 1,-1 0.55,0 1,0.45 1,1 0,0.55 -0.45,1 -1,1 -0.55,0 -1,-0.45 -1,-1 z m -8,-2.1323 c -2.44039,-0.98156 -2.45328,-1.03998 -0.54044,-2.4501 2.48418,-1.83129 3.95287,-1.35608 4.35999,1.41073 0.35206,2.39261 -0.12935,2.52361 -3.81955,1.03937 z M 257.2,289.8 c -1.85617,-1.85617 -1.43173,-2.56696 1.22908,-2.05831 1.56958,0.30005 2.2394,0.95866 1.89301,1.86133 -0.65727,1.71282 -1.54993,1.76914 -3.12209,0.19698 z m 6.55,-1.48933 C 261.38129,287.69167 261.51805,285 263.91821,285 c 4.99908,0 6.81339,-3.00291 3.03581,-5.02461 -1.64799,-0.88197 -2.91242,-0.61072 -6.5,1.39442 -4.95539,2.76962 -5.95486,1.95591 -1.70433,-1.38755 2.88391,-2.26849 5.84921,-2.27829 11.64833,-0.0385 2.69345,1.04029 2.7709,1.21225 1.09722,2.43607 -0.99043,0.72423 -1.51091,1.78582 -1.1566,2.35909 0.52298,0.84621 -3.5495,4.55346 -4.55346,4.14509 -0.15685,-0.0638 -1.07268,-0.3218 -2.03518,-0.57333 z m 45.27006,-5.83484 c 0.69572,-0.83829 1.47088,-1.31823 1.72258,-1.06653 0.69349,0.6935 -0.71555,2.5907 -1.9241,2.5907 -0.6631,0 -0.58723,-0.57378 0.20152,-1.52417 z M 328,276 c -2.78083,-1.52244 -3.06952,-1.92478 -1.40499,-1.95808 1.15226,-0.0231 2.9095,0.85808 3.90499,1.95808 2.20672,2.43839 1.95388,2.43839 -2.5,0 z m -77.53945,-28.06383 c -0.94658,-1.5316 0.0135,-2.15127 2.70359,-1.74499 l 2.33586,0.35278 -2.18931,1.23072 c -1.52551,0.85757 -2.38968,0.90653 -2.85014,0.16149 z M 240,244.5 c 0,-1.02996 0.6554,-1.52043 1.75,-1.30963 2.10784,0.40593 1.97493,2.18068 -0.19718,2.63295 C 240.64684,246.01197 240,245.46073 240,244.5 Z m 81.80869,-5.7697 -3.69131,-4.2303 -0.0198,-13.59069 -0.0198,-13.5907 2.92062,-2.1593 C 322.60474,203.97169 325.31481,203 327.02078,203 h 3.10177 l -0.67813,4.75 c -0.55815,3.90962 -0.44515,4.52885 0.63873,3.5 2.06007,-1.95549 4.62452,-1.4704 5.28656,1 0.80214,2.99316 0.80118,18.24578 -10e-4,19.04815 -0.34732,0.34732 -1.47232,0.18148 -2.5,-0.36852 C 331.44221,230.1663 331,230.2736 331,231.38303 c 0,0.79937 -0.26055,2.13237 -0.57899,2.96222 -0.43481,1.13309 -0.0613,1.37344 1.5,0.96516 1.63486,-0.42753 2.07899,-0.0789 2.07899,1.63198 0,1.1966 -0.43023,1.90975 -0.95607,1.58476 -0.52584,-0.32498 -1.70259,0.54846 -2.61501,1.94098 -2.32721,3.55178 -4.36263,3.14144 -8.62023,-1.73783 z M 160.15789,226 c 0,-1.375 0.22698,-1.9375 0.50439,-1.25 0.27741,0.6875 0.27741,1.8125 0,2.5 -0.27741,0.6875 -0.50439,0.125 -0.50439,-1.25 z m 75.11447,-10 c 0,-2.475 0.19502,-3.4875 0.43337,-2.25 0.23836,1.2375 0.23836,3.2625 0,4.5 -0.23835,1.2375 -0.43337,0.225 -0.43337,-2.25 z m -66.60569,-7.66667 c -0.36667,-0.36666 -0.6983,-1.60416 -0.73696,-2.75 -0.0693,-2.05468 -0.0833,-2.05582 -1.02052,-0.0833 -0.82816,1.74306 -0.88512,1.67882 -0.44337,-0.5 0.27878,-1.375 0.51302,-4.9375 0.52053,-7.91667 0.008,-2.97916 0.28038,-5.14993 0.60639,-4.82392 0.47692,0.47692 2.28444,16.74059 1.86052,16.74059 -0.066,0 -0.41993,-0.3 -0.78659,-0.66667 z m -29.12209,-36.14469 c -0.41536,-3.47125 -0.48281,-6.58375 -0.14989,-6.91667 1.96848,-1.96847 3.70758,6.51964 2.11624,10.32885 -1.17324,2.80842 -1.2348,2.70159 -1.96635,-3.41218 z m -1.46563,-11.77197 c 0.048,-1.16495 0.28494,-1.4019 0.60416,-0.60417 0.28887,0.72187 0.25335,1.58437 -0.0789,1.91667 -0.3323,0.33229 -0.56864,-0.25834 -0.52522,-1.3125 z M 142,140.62244 c 0,-0.20765 0.7875,-0.99515 1.75,-1.75 1.58606,-1.24387 1.62143,-1.2085 0.37756,0.37756 C 142.82119,140.91575 142,141.44548 142,140.62244 Z"
         id="path3" />
      <path
         style="fill:#24c1c5"
         d="m 171.90033,387.00904 c -5.3139,-2.80861 -9.6603,-8.31949 -11.24955,-14.2635 C 159.8794,369.8605 158.2812,357.375 157.09922,345 c -1.94434,-20.3566 -9.51501,-94.34525 -12.07402,-118 -0.56525,-5.225 -1.70611,-16.25 -2.53525,-24.5 -0.82915,-8.25 -1.72777,-16.8 -1.99693,-19 l -0.4894,-4 1.97436,2.33135 c 1.65893,1.95889 1.87785,3.2546 1.37033,8.11032 -0.67295,6.43839 0.84145,11.42271 2.0308,6.68396 0.4339,-1.72877 1.33564,-2.62563 2.63994,-2.62563 1.58941,0 1.98095,0.67766 1.98095,3.42857 0,3.97169 2.75267,7.5677 4.13,5.39532 0.60913,-0.96074 0.84357,-0.75452 0.85469,0.7518 0.014,1.8925 3.74534,6.42431 5.28962,6.42431 0.35497,0 1.1847,-1.8 1.84384,-4 0.68144,-2.27444 1.82338,-4 2.64713,-4 0.91235,0 1.22317,0.58771 0.83955,1.58742 -0.33504,0.87308 -0.86152,3.46058 -1.16997,5.75 -0.94126,6.98648 -1.4291,8.66258 -2.5213,8.66258 -0.61057,0 -0.76945,-0.87869 -0.38048,-2.10421 0.65678,-2.06935 0.61647,-2.06624 -2.43262,0.18806 -3.0587,2.26139 -4.16901,6.13772 -2.12066,7.40367 0.57683,0.3565 0.72701,3.02423 0.36514,6.48637 -0.76725,7.34065 -0.0347,9.84347 2.31114,7.89658 1.43125,-1.18784 1.55959,-1.10929 1.04148,0.63737 -0.32501,1.09569 -0.88033,3.62813 -1.23405,5.62764 -0.81216,4.59101 1.11398,6.10407 2.06641,1.62325 0.38097,-1.7923 1.25417,-3.93373 1.94044,-4.75873 2.70316,-3.24958 4.77612,-18 2.52964,-18 -0.55,0 -1,-0.70156 -1,-1.55902 0,-0.88921 0.47766,-1.2638 1.1118,-0.87188 1.67094,1.03269 2.8414,-1.53547 2.99393,-6.5691 0.23945,-7.90216 3.19531,18.12957 11.89578,104.76408 2.16876,21.59524 4.42147,40.15774 5.00602,41.25 1.22073,2.28094 3.54641,2.44882 12.8998,0.93119 3.52403,-0.57179 9.37403,-1.42577 13,-1.89773 3.62597,-0.47196 14.69267,-2.02212 24.59267,-3.44479 9.9,-1.42267 22.725,-3.26209 28.5,-4.08761 5.775,-0.82551 15.0537,-2.17913 20.61933,-3.00804 12.42742,-1.85085 12.44982,-1.85088 11.74553,-0.0155 -0.32909,0.85761 0.12177,1.75794 1.06078,2.11827 1.50125,0.57608 1.49772,0.72571 -0.0437,1.85284 -1.90222,1.39093 -1.37999,5.08446 1.29645,9.16922 1.48926,2.27289 1.73383,2.32803 3.93348,0.88677 2.2211,-1.45533 2.37791,-1.40761 2.95706,0.8999 0.33636,1.34019 1.23838,2.67724 2.00447,2.97122 1.87881,0.72097 0.65804,3.61021 -1.52539,3.61021 -0.95591,0 -2.56788,-0.91698 -3.58215,-2.03773 -1.723,-1.9039 -1.90819,-1.92323 -2.81976,-0.29435 -0.90902,1.62432 -1.02788,1.60982 -1.74058,-0.21227 -0.6567,-1.67891 -0.77489,-1.57688 -0.83522,0.72103 -0.0443,1.68855 -0.71632,2.82754 -1.82029,3.08536 -0.9625,0.22478 1.4,0.19922 5.25,-0.0568 3.85,-0.25601 7.61941,-0.95926 8.37647,-1.56277 0.75706,-0.60351 2.93888,-1.19724 4.84849,-1.31941 1.90961,-0.12216 4.53686,-0.91983 5.83834,-1.77259 2.64439,-1.73267 5.89108,-2.0947 4.9367,-0.55048 -0.35956,0.58179 0.63661,1 2.38197,1 1.65,0 3.22373,0.36201 3.49718,0.80446 0.27345,0.44245 -6.78749,1.82818 -15.69098,3.0794 -8.90349,1.25121 -21.81317,3.1127 -28.68817,4.13664 -6.875,1.02394 -17.9,2.57245 -24.5,3.44115 -6.6,0.86869 -14.925,2.01692 -18.5,2.55163 -3.575,0.53472 -13.025,1.90584 -21,3.04695 -7.975,1.1411 -18.8287,2.71937 -24.11933,3.50725 -13.40357,1.99607 -22.50355,1.80772 -26.98034,-0.55844 z m 114.82884,-14.61321 c -0.33229,-0.33229 -1.1948,-0.36781 -1.91667,-0.0789 -0.79773,0.31922 -0.56078,0.55618 0.60417,0.60416 1.05416,0.0434 1.64479,-0.19293 1.3125,-0.52522 z m -1.87383,-9.25182 c 3.51046,-2.69995 2.53552,-5.64401 -1.86904,-5.64401 -3.12189,0 -3.45893,0.26132 -3.22442,2.5 0.57415,5.48094 1.39566,5.98803 5.09346,3.14401 z m 11.23399,-6.2071 c -0.51278,-2.61453 -0.90959,-3.41008 -0.96611,-1.93691 -0.10379,2.70526 0.90968,7.30043 1.48354,6.72657 0.19402,-0.19402 -0.0388,-2.34937 -0.51743,-4.78966 z M 169.98469,247.25 c 0.009,-1.34014 -0.59126,-2.25 -1.48469,-2.25 -1.53862,0 -2.18125,4.98542 -0.81831,6.34836 0.95508,0.95508 2.28471,-1.4111 2.303,-4.09836 z m -18.56159,-4.70038 c -0.84982,-3.38594 -2.32893,-1.50784 -1.64211,2.08506 0.29355,1.5356 0.83714,2.14719 1.40433,1.58 0.50897,-0.50897 0.61597,-2.15824 0.23778,-3.66506 z M 171.075,237.725 c -0.0412,-0.39875 -0.11986,-1.9625 -0.17468,-3.475 L 170.80064,231.5 170,234 c -1.16832,3.64808 -1.14388,5.21463 0.075,4.80833 0.59125,-0.19708 1.04125,-0.68458 1,-1.08333 z m -17.14529,-8.975 c 0.068,-5.56534 -0.0145,-5.75 -2.569,-5.75 -2.56452,0 -2.6232,0.13588 -2.07119,4.79669 0.31245,2.63819 1.14179,6.05582 1.84297,7.59474 1.12701,2.47353 1.35908,2.58409 2.00091,0.95331 0.39931,-1.01461 0.75766,-4.43224 0.79631,-7.59474 z M 335,366.5 c 0.68469,-0.825 2.20229,-1.53163 3.37244,-1.57029 2.06699,-0.0683 2.07062,-0.0927 0.12756,-0.85636 -1.68305,-0.66151 -1.44534,-0.87156 1.5,-1.32545 1.925,-0.29665 4.625,-0.85032 6,-1.23038 1.77041,-0.48935 2.09456,-0.40448 1.11073,0.29082 -1.10536,0.7812 -0.81497,1.28275 1.42104,2.45431 l 2.8103,1.47247 -6.50295,1.13244 C 341.2625,367.4904 337.30543,368 336.04564,368 334.123,368 333.95505,367.75908 335,366.5 Z m 22.5,-2.37066 c 3.12575,-1.37109 15.18622,-2.5181 14,-1.33147 -0.55,0.55019 -4.375,1.27223 -8.5,1.60455 -4.62593,0.37267 -6.73358,0.26802 -5.5,-0.27308 z m -43.05735,-6.45962 c -1.14376,-1.22749 -2.03188,-3.49669 -2,-5.11012 0.0511,-2.5842 -0.32528,-2.9473 -3.43507,-3.31411 -3.94873,-0.46578 -5.82234,-2.41182 -3.21679,-3.34115 3.51472,-1.25361 10.35479,-1.94891 9.76369,-0.99249 -0.32599,0.52746 0.59612,2.14784 2.04913,3.60086 1.95375,1.95374 2.34942,2.93426 1.51912,3.76456 C 318.50523,352.89477 318,354.885 318,356.7 c 0,3.82792 -0.71301,4.02228 -3.55735,0.96972 z M 337,353.09579 C 337,352.00362 339.49217,351 342.20423,351 c 1.5419,0 1.78169,0.31204 0.9811,1.27669 -1.22415,1.47501 -6.18533,2.132 -6.18533,0.8191 z m 72.03327,-1.65466 c -0.0487,-1.55038 2.69978,-5.04141 3.40997,-4.33122 0.33372,0.33372 -0.28951,1.68301 -1.38497,2.99843 -1.09545,1.31541 -2.0067,1.91517 -2.025,1.33279 z m -81.80549,-3.62447 c 0.50915,-1.52746 6.65029,-1.80438 7.02222,-0.31666 0.1375,0.55 -1.485,1.1425 -3.60555,1.31666 -2.84149,0.23337 -3.74012,-0.0296 -3.41667,-1 z M 322.5,344 c -0.36155,-0.585 0.67595,-1 2.5,-1 1.82405,0 2.86155,0.415 2.5,1 -0.33992,0.55 -1.46492,1 -2.5,1 -1.03508,0 -2.16008,-0.45 -2.5,-1 z m 14.5,-1.5 c -1.05718,-1.27382 -0.81176,-1.50206 1.62756,-1.51365 1.57984,-0.008 3.93601,-0.29835 5.23593,-0.64631 2.16211,-0.57875 2.26561,-0.44979 1.21481,1.51365 -1.36202,2.54496 -6.18249,2.93062 -8.0783,0.64631 z m 15.90932,-2.57721 c -1.02567,-0.6493 -0.66071,-0.89633 1.34068,-0.90748 2.98623,-0.0166 3.52394,0.47372 1.40932,1.28518 -0.73738,0.28296 -1.97488,0.11299 -2.75,-0.3777 z m 35.16963,-8.50612 c 0.048,-1.16495 0.28494,-1.4019 0.60416,-0.60417 0.28887,0.72187 0.25335,1.58438 -0.0789,1.91667 -0.33229,0.33229 -0.56864,-0.25834 -0.52522,-1.3125 z M 273,296 c 0,-0.55 0.45,-1 1,-1 0.55,0 1,0.45 1,1 0,0.55 -0.45,1 -1,1 -0.55,0 -1,-0.45 -1,-1 z m -8,-2.1323 c -2.44039,-0.98156 -2.45328,-1.03998 -0.54044,-2.4501 2.48418,-1.83129 3.95287,-1.35608 4.35999,1.41073 0.35206,2.39261 -0.12935,2.52361 -3.81955,1.03937 z M 257.2,289.8 c -1.85617,-1.85617 -1.43173,-2.56696 1.22908,-2.05831 1.56958,0.30005 2.2394,0.95866 1.89301,1.86133 -0.65727,1.71282 -1.54993,1.76914 -3.12209,0.19698 z m 6.55,-1.48933 C 261.38129,287.69167 261.51805,285 263.91821,285 c 4.99908,0 6.81339,-3.00291 3.03581,-5.02461 -1.64799,-0.88197 -2.91242,-0.61072 -6.5,1.39442 -4.95539,2.76962 -5.95486,1.95591 -1.70433,-1.38755 2.88391,-2.26849 5.84921,-2.27829 11.64833,-0.0385 2.69345,1.04029 2.7709,1.21225 1.09722,2.43607 -0.99043,0.72423 -1.51091,1.78582 -1.1566,2.35909 0.52298,0.84621 -3.5495,4.55346 -4.55346,4.14509 -0.15685,-0.0638 -1.07268,-0.3218 -2.03518,-0.57333 z m 45.27006,-5.83484 c 0.69572,-0.83829 1.47088,-1.31823 1.72258,-1.06653 0.69349,0.6935 -0.71555,2.5907 -1.9241,2.5907 -0.6631,0 -0.58723,-0.57378 0.20152,-1.52417 z M 328,276 c -2.78083,-1.52244 -3.06952,-1.92478 -1.40499,-1.95808 1.15226,-0.0231 2.9095,0.85808 3.90499,1.95808 2.20672,2.43839 1.95388,2.43839 -2.5,0 z m -77.53945,-28.06383 c -0.94658,-1.5316 0.0135,-2.15127 2.70359,-1.74499 l 2.33586,0.35278 -2.18931,1.23072 c -1.52551,0.85757 -2.38968,0.90653 -2.85014,0.16149 z M 160.15789,226 c 0,-1.375 0.22698,-1.9375 0.50439,-1.25 0.27741,0.6875 0.27741,1.8125 0,2.5 -0.27741,0.6875 -0.50439,0.125 -0.50439,-1.25 z m 75.11447,-10 c 0,-2.475 0.19502,-3.4875 0.43337,-2.25 0.23836,1.2375 0.23836,3.2625 0,4.5 -0.23835,1.2375 -0.43337,0.225 -0.43337,-2.25 z m -66.60569,-7.66667 c -0.36667,-0.36666 -0.6983,-1.60416 -0.73696,-2.75 -0.0693,-2.05468 -0.0833,-2.05582 -1.02052,-0.0833 -0.82816,1.74306 -0.88512,1.67882 -0.44337,-0.5 0.27878,-1.375 0.51302,-4.9375 0.52053,-7.91667 0.008,-2.97916 0.28038,-5.14993 0.60639,-4.82392 0.47692,0.47692 2.28444,16.74059 1.86052,16.74059 -0.066,0 -0.41993,-0.3 -0.78659,-0.66667 z m -29.12209,-36.14469 c -0.41536,-3.47125 -0.48281,-6.58375 -0.14989,-6.91667 1.96848,-1.96847 3.70758,6.51964 2.11624,10.32885 -1.17324,2.80842 -1.2348,2.70159 -1.96635,-3.41218 z m -1.46563,-11.77197 c 0.048,-1.16495 0.28494,-1.4019 0.60416,-0.60417 0.28887,0.72187 0.25335,1.58437 -0.0789,1.91667 -0.3323,0.33229 -0.56864,-0.25834 -0.52522,-1.3125 z M 142,140.62244 c 0,-0.20765 0.7875,-0.99515 1.75,-1.75 1.58606,-1.24387 1.62143,-1.2085 0.37756,0.37756 C 142.82119,140.91575 142,141.44548 142,140.62244 Z"
         id="path2" />
    </g>
  </g>
</svg>
