<svg width="64" height="64" xmlns="http://www.w3.org/2000/svg" clip-rule="evenodd" fill-rule="evenodd">

 <g>
  <title>Layer 1</title>
  <path stroke="null" id="svg_1" clip-rule="evenodd" d="m9.30095,0.81481l45.32229,0c4.6878,0 8.48787,3.80007 8.48787,8.48614l0,45.32229c0,4.6878 -3.80007,8.48787 -8.48614,8.48787l-45.32402,0c-4.68607,0 -8.48614,-3.80007 -8.48614,-8.48614l0,-45.32402c0,-4.68607 3.80007,-8.48614 8.48614,-8.48614z" fill-rule="evenodd" fill="#212121"/>
  <g stroke="null" id="svg_5">
   <path stroke="null" id="svg_2" clip-rule="evenodd" d="m42.24607,26.11746c2.85961,2.0431 6.36335,3.24428 10.14653,3.24428l0,-7.27785c-0.71672,0 -1.4298,-0.07439 -2.13019,-0.22318l0,5.72829c-3.78317,0 -7.2851,-1.20299 -10.14653,-3.24428l0,14.84964c0,7.42845 -6.02586,13.45068 -13.45794,13.45068c-2.77251,0 -5.35088,-0.83829 -7.49195,-2.27535c2.44409,2.49671 5.85167,4.04627 9.62214,4.04627c7.43208,0 13.45794,-6.02223 13.45794,-13.45068l0,-14.84782l0,0zm2.62917,-7.34135c-1.46065,-1.59492 -2.42051,-3.65798 -2.62917,-5.93877l0,-0.93627l-2.01951,0c0.50805,2.89771 2.24269,5.37447 4.64868,6.87503l0,0zm-21.00796,25.89433c-0.81651,-1.07054 -1.25743,-2.37877 -1.25561,-3.72511c0,-3.39851 2.75618,-6.15287 6.1565,-6.15287c0.63325,0 1.26287,0.09617 1.86709,0.2885l0,-7.43934c-0.70583,-0.09617 -1.4171,-0.1379 -2.13019,-0.12338l0,5.78998c-0.60422,-0.19233 -1.23384,-0.2885 -1.86891,-0.2885c-3.40032,0 -6.1565,2.75437 -6.1565,6.15287c0.00181,2.40418 1.379,4.48537 3.38762,5.49785z" fill-rule="evenodd" fill="#ec407a"/>
   <path stroke="null" id="svg_3" clip-rule="evenodd" d="m40.11588,24.34472c2.85961,2.0431 6.36335,3.24428 10.14653,3.24428l0,-5.72829c-2.11205,-0.44999 -3.98095,-1.55319 -5.38717,-3.08642c-2.40599,-1.50057 -4.13881,-3.97551 -4.64686,-6.87322l-5.3037,0l0,29.06421c-0.0127,3.38762 -2.76344,6.1311 -6.1565,6.1311c-1.99955,0 -3.77592,-0.9526 -4.90089,-2.42776c-2.00862,-1.01248 -3.3858,-3.09367 -3.3858,-5.49604c0,-3.39851 2.75618,-6.15287 6.1565,-6.15287c0.6514,0 1.2792,0.10161 1.86891,0.2885l0,-5.78817c-7.30144,0.1506 -13.17307,6.11296 -13.17307,13.44705c0,3.6616 1.46246,6.98027 3.83579,9.40441c2.14108,1.43706 4.71944,2.27535 7.49195,2.27535c7.43208,0 13.45794,-6.02223 13.45794,-13.45068l-0.00363,-14.85145l0,0z" fill-rule="evenodd" fill="#fff"/>
   <path stroke="null" id="svg_4" clip-rule="evenodd" d="m50.2624,21.86252l0,-1.54956c-1.9052,0.00363 -3.77047,-0.52983 -5.38717,-1.53867c1.4298,1.56589 3.31323,2.6455 5.38717,3.08823zm-10.03584,-9.96145c-0.04899,-0.27761 -0.08528,-0.55523 -0.11068,-0.83647l0,-0.93627l-7.32321,0l0,29.06603c-0.01089,3.38762 -2.76344,6.1311 -6.1565,6.1311c-0.99615,0 -1.93604,-0.23588 -2.76888,-0.65684c1.12497,1.47517 2.90134,2.42776 4.90089,2.42776c3.39306,0 6.1438,-2.74348 6.1565,-6.1311l0,-29.06421l5.30189,0zm-11.72149,15.61897l0,-1.64936c-0.61148,-0.08347 -1.2284,-0.1252 -1.84713,-0.1252c-7.43389,0 -13.45794,6.02223 -13.45794,13.45068c0,4.65775 2.36789,8.76209 5.96598,11.17533c-2.37333,-2.42413 -3.83579,-5.7428 -3.83579,-9.40441c0,-7.3341 5.87345,-13.29645 13.17488,-13.44705z" fill-rule="evenodd" fill="#81d4fa"/>
  </g>
 </g>
</svg>